AnekLatin-CondensedExtraBold.ufo
<glyph name="colon" format="2">
  <advance width="408"/>
  <unicode hex="003A"/>
  <outline>
    <contour>
      <point x="204" y="-26" type="curve" smooth="yes"/>
      <point x="309" y="-26"/>
      <point x="364" y="40"/>
      <point x="364" y="156" type="curve" smooth="yes"/>
      <point x="364" y="173" type="line" smooth="yes"/>
      <point x="364" y="287"/>
      <point x="309" y="355"/>
      <point x="204" y="355" type="curve" smooth="yes"/>
      <point x="95" y="355"/>
      <point x="44" y="287"/>
      <point x="44" y="173" type="curve" smooth="yes"/>
      <point x="44" y="156" type="line" smooth="yes"/>
      <point x="44" y="40"/>
      <point x="95" y="-26"/>
    </contour>
    <contour>
      <point x="204" y="585" type="curve" smooth="yes"/>
      <point x="309" y="585"/>
      <point x="364" y="651"/>
      <point x="364" y="767" type="curve" smooth="yes"/>
      <point x="364" y="784" type="line" smooth="yes"/>
      <point x="364" y="898"/>
      <point x="309" y="966"/>
      <point x="204" y="966" type="curve" smooth="yes"/>
      <point x="95" y="966"/>
      <point x="44" y="898"/>
      <point x="44" y="784" type="curve" smooth="yes"/>
      <point x="44" y="767" type="line" smooth="yes"/>
      <point x="44" y="651"/>
      <point x="95" y="585"/>
    </contour>
  </outline>
</glyph>
<glyph name="semicolon" format="2">
  <advance width="408"/>
  <unicode hex="003B"/>
  <outline>
    <contour>
      <point x="349" y="348" type="curve"/>
      <point x="67" y="348" type="line"/>
      <point x="71" y="294"/>
      <point x="73" y="258"/>
      <point x="73" y="210" type="curve" smooth="yes"/>
      <point x="73" y="57"/>
      <point x="40" y="-57"/>
      <point x="-10" y="-158" type="curve"/>
      <point x="194" y="-208" type="line"/>
      <point x="310" y="-81"/>
      <point x="358" y="57"/>
      <point x="358" y="223" type="curve" smooth="yes"/>
      <point x="358" y="272"/>
      <point x="354" y="309"/>
    </contour>
    <contour>
      <point x="204" y="585" type="curve" smooth="yes"/>
      <point x="309" y="585"/>
      <point x="364" y="651"/>
      <point x="364" y="767" type="curve" smooth="yes"/>
      <point x="364" y="784" type="line" smooth="yes"/>
      <point x="364" y="898"/>
      <point x="309" y="966"/>
      <point x="204" y="966" type="curve" smooth="yes"/>
      <point x="95" y="966"/>
      <point x="44" y="898"/>
      <point x="44" y="784" type="curve" smooth="yes"/>
      <point x="44" y="767" type="line" smooth="yes"/>
      <point x="44" y="651"/>
      <point x="95" y="585"/>
    </contour>
  </outline>
</glyph>
<glyph name="e" format="2">
  <advance width="806"/>
  <unicode hex="0065"/>
  <anchor x="414" y="0" name="bottom"/>
  <anchor x="725" y="10" name="ogonek"/>
  <anchor x="414" y="1006" name="top"/>
  <outline>
    <contour>
      <point x="468" y="-15" type="curve" smooth="yes"/>
      <point x="571" y="-15"/>
      <point x="665" y="6"/>
      <point x="731" y="39" type="curve"/>
      <point x="749" y="282" type="line"/>
      <point x="688" y="259"/>
      <point x="615" y="243"/>
      <point x="536" y="243" type="curve" smooth="yes"/>
      <point x="409" y="243"/>
      <point x="348" y="285"/>
      <point x="348" y="390" type="curve" smooth="yes"/>
      <point x="348" y="458" type="line"/>
      <point x="345" y="508" type="line"/>
      <point x="345" y="648" type="line" smooth="yes"/>
      <point x="345" y="740"/>
      <point x="358" y="780"/>
      <point x="412" y="780" type="curve" smooth="yes"/>
      <point x="465" y="780"/>
      <point x="478" y="740"/>
      <point x="478" y="648" type="curve" smooth="yes"/>
      <point x="478" y="590"/>
      <point x="478" y="504"/>
      <point x="478" y="384" type="curve"/>
      <point x="747" y="384" type="line"/>
      <point x="758" y="441"/>
      <point x="762" y="502"/>
      <point x="762" y="562" type="curve" smooth="yes"/>
      <point x="762" y="622" type="line" smooth="yes"/>
      <point x="762" y="887"/>
      <point x="650" y="1025"/>
      <point x="412" y="1025" type="curve" smooth="yes"/>
      <point x="164" y="1025"/>
      <point x="48" y="876"/>
      <point x="48" y="598" type="curve" smooth="yes"/>
      <point x="48" y="427" type="line" smooth="yes"/>
      <point x="48" y="134"/>
      <point x="184" y="-15"/>
    </contour>
    <contour>
      <point x="241" y="384" type="line"/>
      <point x="681" y="384" type="line"/>
      <point x="681" y="588" type="line"/>
      <point x="241" y="588" type="line"/>
    </contour>
  </outline>
</glyph>
<glyph name="bar" format="2">
  <advance width="444"/>
  <unicode hex="007C"/>
  <outline>
    <contour>
      <point x="355" y="-401" type="line"/>
      <point x="355" y="1426" type="line"/>
      <point x="89" y="1426" type="line"/>
      <point x="89" y="-401" type="line"/>
    </contour>
  </outline>
</glyph>
<glyph name="cent" format="2">
  <advance width="641"/>
  <unicode hex="00A2"/>
  <anchor x="356" y="0" name="bottom"/>
  <anchor x="356" y="1006" name="top"/>
  <outline>
    <contour>
      <point x="501" y="855" type="line"/>
      <point x="501" y="1155" type="line"/>
      <point x="235" y="1155" type="line"/>
      <point x="235" y="855" type="line"/>
    </contour>
    <contour>
      <point x="501" y="-165" type="line"/>
      <point x="501" y="183" type="line"/>
      <point x="235" y="183" type="line"/>
      <point x="235" y="-165" type="line"/>
    </contour>
    <component base="c"/>
  </outline>
</glyph>
<glyph name="dcroat" format="2">
  <advance width="869"/>
  <unicode hex="0111"/>
  <anchor x="433" y="0" name="bottom"/>
  <anchor x="433" y="503" name="center"/>
  <anchor x="433" y="1324" name="top"/>
  <anchor x="871" y="1324" name="topright"/>
  <outline>
    <contour>
      <point x="253" y="1072" type="line"/>
      <point x="869" y="1072" type="line"/>
      <point x="869" y="1224" type="line"/>
      <point x="253" y="1224" type="line"/>
    </contour>
    <component base="d"/>
  </outline>
</glyph>
<glyph name="eogonek" format="2">
  <advance width="806"/>
  <unicode hex="0119"/>
  <anchor x="414" y="0" name="bottom"/>
  <anchor x="725" y="10" name="ogonek"/>
  <anchor x="414" y="1006" name="top"/>
  <outline>
    <contour>
      <point x="560" y="-337" type="curve" smooth="yes"/>
      <point x="614" y="-337"/>
      <point x="668" y="-326"/>
      <point x="707" y="-309" type="curve"/>
      <point x="726" y="-98" type="line"/>
      <point x="701" y="-105"/>
      <point x="672" y="-111"/>
      <point x="642" y="-111" type="curve" smooth="yes"/>
      <point x="593" y="-111"/>
      <point x="563" y="-97"/>
      <point x="563" y="-62" type="curve"/>
      <point x="563" y="-62" type="line"/>
      <point x="563" y="-32"/>
      <point x="584" y="-9"/>
      <point x="625" y="3" type="curve"/>
      <point x="629" y="24" type="line"/>
      <point x="462" y="-6" type="line"/>
      <point x="462" y="-25" type="line"/>
      <point x="385" y="-56"/>
      <point x="348" y="-107"/>
      <point x="348" y="-184" type="curve"/>
      <point x="348" y="-185" type="line" smooth="yes"/>
      <point x="348" y="-286"/>
      <point x="436" y="-337"/>
    </contour>
    <component base="e"/>
  </outline>
</glyph>
<glyph name="Hbar" format="2">
  <advance width="939"/>
  <unicode hex="0126"/>
  <anchor x="470" y="0" name="bottom"/>
  <anchor x="470" y="639" name="center"/>
  <anchor x="470" y="1278" name="top"/>
  <anchor x="20" y="1278" name="topleft"/>
  <outline>
    <contour>
      <point x="3" y="956" type="line"/>
      <point x="936" y="956" type="line"/>
      <point x="936" y="1108" type="line"/>
      <point x="3" y="1108" type="line"/>
    </contour>
    <component base="H"/>
  </outline>
</glyph>
<glyph name="hbar" format="2">
  <advance width="876"/>
  <unicode hex="0127"/>
  <anchor x="440" y="0" name="bottom"/>
  <anchor x="440" y="667" name="center"/>
  <anchor x="224" y="1324" name="top"/>
  <outline>
    <contour>
      <point x="0" y="1072" type="line"/>
      <point x="578" y="1072" type="line"/>
      <point x="578" y="1224" type="line"/>
      <point x="0" y="1224" type="line"/>
    </contour>
    <component base="h" xOffset="3"/>
  </outline>
</glyph>
<glyph name="kgreenlandic" format="2">
  <advance width="845"/>
  <unicode hex="0138"/>
  <anchor x="423" y="0" name="bottom"/>
  <anchor x="423" y="1006" name="top"/>
  <outline>
    <contour>
      <point x="524" y="0" type="line"/>
      <point x="842" y="0" type="line"/>
      <point x="649" y="552" type="line"/>
      <point x="649" y="486" type="line"/>
      <point x="834" y="1006" type="line"/>
      <point x="524" y="1006" type="line"/>
      <point x="388" y="590" type="line"/>
      <point x="365" y="590" type="line"/>
      <point x="365" y="433" type="line"/>
      <point x="388" y="433" type="line"/>
    </contour>
    <contour>
      <point x="66" y="0" type="line"/>
      <point x="377" y="0" type="line"/>
      <point x="377" y="1006" type="line"/>
      <point x="66" y="1006" type="line"/>
    </contour>
  </outline>
</glyph>
<glyph name="Lslash" format="2">
  <advance width="687"/>
  <unicode hex="0141"/>
  <anchor x="355" y="0" name="bottom"/>
  <anchor x="248" y="639" name="center"/>
  <anchor x="246" y="1278" name="top"/>
  <anchor x="476" y="1278" name="topright"/>
  <outline>
    <contour>
      <point x="559" y="1006" type="line"/>
      <point x="0" y="725" type="line"/>
      <point x="0" y="522" type="line"/>
      <point x="559" y="803" type="line"/>
    </contour>
    <component base="L" xOffset="12"/>
  </outline>
</glyph>
<glyph name="lslash" format="2">
  <advance width="482"/>
  <unicode hex="0142"/>
  <anchor x="242" y="0" name="bottom"/>
  <anchor x="242" y="667" name="center"/>
  <anchor x="242" y="1324" name="top"/>
  <anchor x="468" y="1324" name="topright"/>
  <outline>
    <contour>
      <point x="0" y="432" type="line"/>
      <point x="482" y="795" type="line"/>
      <point x="482" y="1002" type="line"/>
      <point x="0" y="639" type="line"/>
    </contour>
    <component base="l" xOffset="20"/>
  </outline>
</glyph>
<glyph name="Eng" format="2">
  <advance width="991"/>
  <unicode hex="014A"/>
  <outline>
    <contour>
      <point x="609" y="-30" type="line"/>
      <point x="793" y="-30" type="line"/>
      <point x="917" y="30" type="line"/>
      <point x="917" y="1280" type="line"/>
      <point x="633" y="1280" type="line"/>
      <point x="633" y="995" type="line"/>
      <point x="647" y="568" type="line"/>
      <point x="636" y="568" type="line"/>
      <point x="468" y="1280" type="line"/>
      <point x="74" y="1280" type="line"/>
      <point x="74" y="0" type="line"/>
      <point x="360" y="0" type="line"/>
      <point x="360" y="285" type="line"/>
      <point x="339" y="926" type="line"/>
      <point x="350" y="926" type="line"/>
    </contour>
    <contour>
      <point x="601" y="-361" type="curve" smooth="yes"/>
      <point x="830" y="-361"/>
      <point x="917" y="-234"/>
      <point x="917" y="-31" type="curve" smooth="yes"/>
      <point x="917" y="208" type="line"/>
      <point x="606" y="208" type="line"/>
      <point x="606" y="1" type="line" smooth="yes"/>
      <point x="606" y="-61"/>
      <point x="588" y="-100"/>
      <point x="516" y="-100" type="curve" smooth="yes"/>
      <point x="489" y="-100"/>
      <point x="460" y="-94"/>
      <point x="436" y="-86" type="curve"/>
      <point x="455" y="-333" type="line"/>
      <point x="492" y="-350"/>
      <point x="544" y="-361"/>
    </contour>
  </outline>
</glyph>
<glyph name="eng" format="2">
  <advance width="873"/>
  <unicode hex="014B"/>
  <outline>
    <contour>
      <point x="500" y="70" type="line"/>
      <point x="811" y="70" type="line"/>
      <point x="811" y="723" type="line" smooth="yes"/>
      <point x="811" y="920"/>
      <point x="748" y="1021"/>
      <point x="590" y="1021" type="curve" smooth="yes"/>
      <point x="445" y="1021"/>
      <point x="395" y="929"/>
      <point x="375" y="821" type="curve"/>
      <point x="312" y="821" type="line"/>
      <point x="375" y="701" type="line"/>
      <point x="382" y="736"/>
      <point x="406" y="762"/>
      <point x="441" y="762" type="curve" smooth="yes"/>
      <point x="486" y="762"/>
      <point x="499" y="730"/>
      <point x="499" y="664" type="curve" smooth="yes"/>
    </contour>
    <contour>
      <point x="66" y="0" type="line"/>
      <point x="377" y="0" type="line"/>
      <point x="377" y="782" type="line"/>
      <point x="362" y="782" type="line"/>
      <point x="373" y="1006" type="line"/>
      <point x="66" y="1006" type="line"/>
    </contour>
    <component base="jbottom" xOffset="430"/>
  </outline>
</glyph>
<glyph name="oe" format="2">
  <advance width="1256"/>
  <unicode hex="0153"/>
  <anchor x="628" y="0" name="bottom"/>
  <anchor x="628" y="1006" name="top"/>
  <outline>
    <contour>
      <point x="375" y="-20" type="curve" smooth="yes"/>
      <point x="507" y="-20"/>
      <point x="594" y="37"/>
      <point x="633" y="145" type="curve"/>
      <point x="642" y="145" type="line"/>
      <point x="696" y="38"/>
      <point x="797" y="-15"/>
      <point x="949" y="-15" type="curve" smooth="yes"/>
      <point x="1039" y="-15"/>
      <point x="1123" y="6"/>
      <point x="1181" y="39" type="curve"/>
      <point x="1199" y="282" type="line"/>
      <point x="1138" y="259"/>
      <point x="1065" y="243"/>
      <point x="986" y="243" type="curve" smooth="yes"/>
      <point x="859" y="243"/>
      <point x="798" y="285"/>
      <point x="798" y="390" type="curve" smooth="yes"/>
      <point x="798" y="458" type="line"/>
      <point x="795" y="508" type="line"/>
      <point x="795" y="648" type="line" smooth="yes"/>
      <point x="795" y="740"/>
      <point x="808" y="780"/>
      <point x="862" y="780" type="curve" smooth="yes"/>
      <point x="915" y="780"/>
      <point x="928" y="740"/>
      <point x="928" y="648" type="curve" smooth="yes"/>
      <point x="928" y="590"/>
      <point x="928" y="504"/>
      <point x="928" y="384" type="curve"/>
      <point x="1197" y="384" type="line"/>
      <point x="1208" y="441"/>
      <point x="1212" y="502"/>
      <point x="1212" y="562" type="curve" smooth="yes"/>
      <point x="1212" y="642" type="line" smooth="yes"/>
      <point x="1212" y="894"/>
      <point x="1113" y="1025"/>
      <point x="904" y="1025" type="curve" smooth="yes"/>
      <point x="776" y="1025"/>
      <point x="688" y="969"/>
      <point x="640" y="861" type="curve"/>
      <point x="631" y="861" type="line"/>
      <point x="585" y="971"/>
      <point x="501" y="1026"/>
      <point x="375" y="1026" type="curve" smooth="yes"/>
      <point x="158" y="1026"/>
      <point x="48" y="883"/>
      <point x="48" y="605" type="curve"/>
      <point x="48" y="402" type="line"/>
      <point x="48" y="124"/>
      <point x="158" y="-20"/>
    </contour>
    <contour>
      <point x="691" y="384" type="line"/>
      <point x="1131" y="384" type="line"/>
      <point x="1131" y="588" type="line"/>
      <point x="691" y="588" type="line"/>
    </contour>
    <contour>
      <point x="422" y="232" type="curve" smooth="yes"/>
      <point x="370" y="232"/>
      <point x="355" y="273"/>
      <point x="355" y="365" type="curve" smooth="yes"/>
      <point x="355" y="642" type="line" smooth="yes"/>
      <point x="355" y="734"/>
      <point x="370" y="774"/>
      <point x="422" y="774" type="curve" smooth="yes"/>
      <point x="473" y="774"/>
      <point x="488" y="734"/>
      <point x="488" y="642" type="curve" smooth="yes"/>
      <point x="488" y="365" type="line" smooth="yes"/>
      <point x="488" y="273"/>
      <point x="473" y="232"/>
    </contour>
  </outline>
</glyph>
<glyph name="tcaron" format="2">
  <advance width="584"/>
  <unicode hex="0165"/>
  <anchor x="321" y="0" name="bottom"/>
  <anchor x="292" y="503" name="center"/>
  <anchor x="261" y="1226" name="top"/>
  <anchor x="455" y="1435" name="topright"/>
  <outline>
    <contour>
      <point x="680" y="1435" type="curve"/>
      <point x="455" y="1435" type="line"/>
      <point x="458" y="1396"/>
      <point x="460" y="1372"/>
      <point x="460" y="1338" type="curve" smooth="yes"/>
      <point x="460" y="1239"/>
      <point x="449" y="1155"/>
      <point x="432" y="1083" type="curve"/>
      <point x="592" y="1043" type="line"/>
      <point x="657" y="1134"/>
      <point x="687" y="1238"/>
      <point x="687" y="1357" type="curve" smooth="yes"/>
      <point x="687" y="1390"/>
      <point x="683" y="1415"/>
    </contour>
    <component base="t"/>
  </outline>
</glyph>
<glyph name="Tbar" format="2">
  <advance width="766"/>
  <unicode hex="0166"/>
  <anchor x="383" y="0" name="bottom"/>
  <anchor x="383" y="639" name="center"/>
  <anchor x="383" y="1278" name="top"/>
  <outline>
    <contour>
      <point x="77" y="465" type="line"/>
      <point x="690" y="465" type="line"/>
      <point x="690" y="658" type="line"/>
      <point x="77" y="658" type="line"/>
    </contour>
    <component base="T"/>
  </outline>
</glyph>
<glyph name="tbar" format="2">
  <advance width="586"/>
  <unicode hex="0167"/>
  <outline>
    <contour>
      <point x="371" y="-15" type="curve" smooth="yes"/>
      <point x="449" y="-15"/>
      <point x="509" y="2"/>
      <point x="555" y="28" type="curve"/>
      <point x="574" y="283" type="line"/>
      <point x="548" y="274"/>
      <point x="521" y="267"/>
      <point x="489" y="267" type="curve" smooth="yes"/>
      <point x="429" y="267"/>
      <point x="406" y="291"/>
      <point x="406" y="348" type="curve" smooth="yes"/>
      <point x="406" y="968" type="line"/>
      <point x="105" y="968" type="line"/>
      <point x="105" y="274" type="line" smooth="yes"/>
      <point x="105" y="83"/>
      <point x="187" y="-15"/>
    </contour>
    <contour>
      <point x="16" y="438" type="line"/>
      <point x="546" y="438" type="line"/>
      <point x="546" y="620" type="line"/>
      <point x="16" y="620" type="line"/>
    </contour>
    <contour>
      <point x="16" y="757" type="line"/>
      <point x="550" y="757" type="line"/>
      <point x="569" y="1006" type="line"/>
      <point x="16" y="1006" type="line"/>
    </contour>
    <contour>
      <point x="107" y="988" type="line"/>
      <point x="398" y="988" type="line"/>
      <point x="408" y="1249" type="line"/>
      <point x="107" y="1213" type="line"/>
    </contour>
  </outline>
</glyph>
<glyph name="Uogonek" format="2">
  <advance width="925"/>
  <unicode hex="0172"/>
  <anchor x="463" y="0" name="bottom"/>
  <anchor x="675" y="0" name="ogonek"/>
  <anchor x="463" y="1278" name="top"/>
  <anchor x="933" y="1278" name="topright"/>
  <outline>
    <contour>
      <point x="561" y="-337" type="curve" smooth="yes"/>
      <point x="615" y="-337"/>
      <point x="669" y="-326"/>
      <point x="708" y="-309" type="curve"/>
      <point x="727" y="-98" type="line"/>
      <point x="702" y="-105"/>
      <point x="673" y="-111"/>
      <point x="643" y="-111" type="curve" smooth="yes"/>
      <point x="594" y="-111"/>
      <point x="564" y="-97"/>
      <point x="564" y="-62" type="curve"/>
      <point x="564" y="-62" type="line"/>
      <point x="564" y="-32"/>
      <point x="585" y="-9"/>
      <point x="626" y="3" type="curve"/>
      <point x="636" y="75" type="line"/>
      <point x="463" y="-13" type="line"/>
      <point x="463" y="-32" type="line"/>
      <point x="386" y="-62"/>
      <point x="349" y="-110"/>
      <point x="349" y="-184" type="curve"/>
      <point x="349" y="-185" type="line" smooth="yes"/>
      <point x="349" y="-286"/>
      <point x="437" y="-337"/>
    </contour>
    <component base="U"/>
  </outline>
</glyph>
<glyph name="Schwa" format="2">
  <advance width="851"/>
  <unicode hex="018F"/>
  <anchor x="426" y="0" name="bottom"/>
  <anchor x="426" y="1278" name="top"/>
  <outline>
    <contour>
      <point x="412" y="-22" type="curve" smooth="yes"/>
      <point x="674" y="-22"/>
      <point x="796" y="122"/>
      <point x="796" y="412" type="curve" smooth="yes"/>
      <point x="796" y="821" type="line" smooth="yes"/>
      <point x="796" y="1147"/>
      <point x="650" y="1300"/>
      <point x="379" y="1300" type="curve" smooth="yes"/>
      <point x="257" y="1300"/>
      <point x="150" y="1265"/>
      <point x="95" y="1230" type="curve"/>
      <point x="73" y="951" type="line"/>
      <point x="123" y="982"/>
      <point x="199" y="1015"/>
      <point x="294" y="1015" type="curve" smooth="yes"/>
      <point x="428" y="1015"/>
      <point x="483" y="950"/>
      <point x="483" y="802" type="curve" smooth="yes"/>
      <point x="483" y="381" type="line" smooth="yes"/>
      <point x="483" y="285"/>
      <point x="467" y="246"/>
      <point x="416" y="246" type="curve" smooth="yes"/>
      <point x="365" y="246"/>
      <point x="348" y="285"/>
      <point x="348" y="381" type="curve"/>
      <point x="348" y="638" type="line"/>
      <point x="301" y="531" type="line"/>
      <point x="603" y="531" type="line"/>
      <point x="603" y="763" type="line"/>
      <point x="64" y="763" type="line"/>
      <point x="53" y="706"/>
      <point x="49" y="645"/>
      <point x="49" y="585" type="curve" smooth="yes"/>
      <point x="49" y="412" type="line" smooth="yes"/>
      <point x="49" y="122"/>
      <point x="157" y="-22"/>
    </contour>
  </outline>
</glyph>
<glyph name="florin" format="2">
  <advance width="724"/>
  <unicode hex="0192"/>
  <outline>
    <contour>
      <point x="20" y="736" type="line"/>
      <point x="640" y="736" type="line"/>
      <point x="657" y="986" type="line"/>
      <point x="37" y="986" type="line"/>
    </contour>
    <contour>
      <point x="708" y="1087" type="curve"/>
      <point x="699" y="1314" type="line"/>
      <point x="637" y="1341"/>
      <point x="562" y="1361"/>
      <point x="478" y="1361" type="curve" smooth="yes"/>
      <point x="256" y="1361"/>
      <point x="152" y="1256"/>
      <point x="137" y="1029" type="curve" smooth="yes"/>
      <point x="43" y="-350" type="line"/>
      <point x="341" y="-350" type="line"/>
      <point x="434" y="998" type="line" smooth="yes"/>
      <point x="440" y="1088"/>
      <point x="477" y="1111"/>
      <point x="557" y="1111" type="curve" smooth="yes"/>
      <point x="608" y="1111"/>
      <point x="660" y="1101"/>
    </contour>
  </outline>
</glyph>
<glyph name="Oogonek" format="2">
  <advance width="912"/>
  <unicode hex="01EA"/>
  <anchor x="456" y="0" name="bottom"/>
  <anchor x="456" y="639" name="center"/>
  <anchor x="672" y="0" name="ogonek"/>
  <anchor x="456" y="1278" name="top"/>
  <anchor x="20" y="1278" name="topleft"/>
  <anchor x="910" y="1278" name="topright"/>
  <outline>
    <contour>
      <point x="557" y="-337" type="curve" smooth="yes"/>
      <point x="611" y="-337"/>
      <point x="665" y="-326"/>
      <point x="704" y="-309" type="curve"/>
      <point x="723" y="-98" type="line"/>
      <point x="698" y="-105"/>
      <point x="669" y="-111"/>
      <point x="639" y="-111" type="curve" smooth="yes"/>
      <point x="590" y="-111"/>
      <point x="560" y="-97"/>
      <point x="560" y="-62" type="curve"/>
      <point x="560" y="-62" type="line"/>
      <point x="560" y="-32"/>
      <point x="581" y="-9"/>
      <point x="622" y="3" type="curve"/>
      <point x="619" y="46" type="line"/>
      <point x="459" y="-13" type="line"/>
      <point x="459" y="-32" type="line"/>
      <point x="382" y="-62"/>
      <point x="345" y="-110"/>
      <point x="345" y="-184" type="curve"/>
      <point x="345" y="-185" type="line" smooth="yes"/>
      <point x="345" y="-286"/>
      <point x="433" y="-337"/>
    </contour>
    <component base="O"/>
  </outline>
</glyph>
<glyph name="oogonek" format="2">
  <advance width="843"/>
  <unicode hex="01EB"/>
  <anchor x="422" y="0" name="bottom"/>
  <anchor x="422" y="503" name="center"/>
  <anchor x="655" y="10" name="ogonek"/>
  <anchor x="422" y="1006" name="top"/>
  <anchor x="851" y="1006" name="topright"/>
  <outline>
    <contour>
      <point x="514" y="-337" type="curve" smooth="yes"/>
      <point x="570" y="-337"/>
      <point x="626" y="-327"/>
      <point x="666" y="-311" type="curve"/>
      <point x="685" y="-100" type="line"/>
      <point x="659" y="-106"/>
      <point x="628" y="-111"/>
      <point x="596" y="-111" type="curve" smooth="yes"/>
      <point x="547" y="-111"/>
      <point x="517" y="-97"/>
      <point x="517" y="-62" type="curve"/>
      <point x="517" y="-62" type="line"/>
      <point x="517" y="-31"/>
      <point x="538" y="-10"/>
      <point x="579" y="5" type="curve"/>
      <point x="584" y="32" type="line"/>
      <point x="416" y="-10" type="line"/>
      <point x="416" y="-29" type="line"/>
      <point x="340" y="-59"/>
      <point x="302" y="-109"/>
      <point x="302" y="-184" type="curve"/>
      <point x="302" y="-185" type="line" smooth="yes"/>
      <point x="302" y="-286"/>
      <point x="388" y="-337"/>
    </contour>
    <component base="o"/>
  </outline>
</glyph>
<glyph name="Odieresismacron" format="2">
  <advance width="912"/>
  <unicode hex="022A"/>
  <anchor x="456" y="0" name="bottom"/>
  <anchor x="456" y="639" name="center"/>
  <anchor x="672" y="0" name="ogonek"/>
  <anchor x="456" y="1618" name="top"/>
  <anchor x="20" y="1278" name="topleft"/>
  <anchor x="910" y="1278" name="topright"/>
  <outline>
    <contour>
      <point x="197" y="1701" type="line"/>
      <point x="714" y="1701" type="line"/>
      <point x="714" y="1886" type="line"/>
      <point x="197" y="1886" type="line"/>
    </contour>
    <component base="O"/>
    <component base="dieresiscomb.case" xOffset="74"/>
  </outline>
</glyph>
<glyph name="odieresismacron" format="2">
  <advance width="843"/>
  <unicode hex="022B"/>
  <anchor x="423" y="1641.28" name="top"/>
  <anchor x="422" y="0" name="bottom"/>
  <anchor x="422" y="503" name="center"/>
  <anchor x="655" y="10" name="ogonek"/>
  <anchor x="851" y="1006" name="topright"/>
  <outline>
    <contour>
      <point x="164" y="1449" type="line"/>
      <point x="681" y="1449" type="line"/>
      <point x="681" y="1634" type="line"/>
      <point x="164" y="1634" type="line"/>
    </contour>
    <component base="o"/>
    <component base="dieresiscomb" xOffset="40"/>
  </outline>
</glyph>
<glyph name="Otildemacron" format="2">
  <advance width="912"/>
  <unicode hex="022C"/>
  <anchor x="456" y="1884.48" name="top"/>
  <anchor x="456" y="0" name="bottom"/>
  <anchor x="456" y="639" name="center"/>
  <anchor x="672" y="0" name="ogonek"/>
  <anchor x="20" y="1278" name="topleft"/>
  <anchor x="910" y="1278" name="topright"/>
  <outline>
    <contour>
      <point x="198" y="1694" type="line"/>
      <point x="715" y="1694" type="line"/>
      <point x="715" y="1879" type="line"/>
      <point x="198" y="1879" type="line"/>
    </contour>
    <component base="O"/>
    <component base="tildecomb.case" xOffset="76"/>
  </outline>
</glyph>
<glyph name="otildemacron" format="2">
  <advance width="843"/>
  <unicode hex="022D"/>
  <anchor x="423" y="1641.28" name="top"/>
  <anchor x="422" y="0" name="bottom"/>
  <anchor x="422" y="503" name="center"/>
  <anchor x="655" y="10" name="ogonek"/>
  <anchor x="851" y="1006" name="topright"/>
  <outline>
    <contour>
      <point x="164" y="1449" type="line"/>
      <point x="681" y="1449" type="line"/>
      <point x="681" y="1634" type="line"/>
      <point x="164" y="1634" type="line"/>
    </contour>
    <component base="o"/>
    <component base="tildecomb" xOffset="43"/>
  </outline>
</glyph>
<glyph name="Odotaccentmacron" format="2">
  <advance width="912"/>
  <unicode hex="0230"/>
  <anchor x="456" y="0" name="bottom"/>
  <anchor x="456" y="639" name="center"/>
  <anchor x="672" y="0" name="ogonek"/>
  <anchor x="456" y="1606" name="top"/>
  <anchor x="20" y="1278" name="topleft"/>
  <anchor x="910" y="1278" name="topright"/>
  <outline>
    <contour>
      <point x="197" y="1689" type="line"/>
      <point x="714" y="1689" type="line"/>
      <point x="714" y="1874" type="line"/>
      <point x="197" y="1874" type="line"/>
    </contour>
    <component base="O"/>
    <component base="dotaccentcomb.case" xOffset="208"/>
  </outline>
</glyph>
<glyph name="jdotless" format="2">
  <advance width="447"/>
  <unicode hex="0237"/>
  <anchor x="224" y="-350" name="bottom"/>
  <anchor x="224" y="1006" name="top"/>
  <outline>
    <contour>
      <point x="70" y="172" type="line"/>
      <point x="381" y="172" type="line"/>
      <point x="381" y="1006" type="line"/>
      <point x="70" y="1006" type="line"/>
    </contour>
    <component base="jbottom"/>
  </outline>
</glyph>
<glyph name="schwa" format="2">
  <advance width="801"/>
  <unicode hex="0259"/>
  <outline>
    <contour>
      <point x="391" y="-19" type="curve" smooth="yes"/>
      <point x="639" y="-19"/>
      <point x="755" y="130"/>
      <point x="755" y="408" type="curve" smooth="yes"/>
      <point x="755" y="638" type="line" smooth="yes"/>
      <point x="755" y="897"/>
      <point x="641" y="1024"/>
      <point x="386" y="1024" type="curve" smooth="yes"/>
      <point x="261" y="1024"/>
      <point x="159" y="990"/>
      <point x="91" y="954" type="curve"/>
      <point x="72" y="702" type="line"/>
      <point x="141" y="732"/>
      <point x="230" y="763"/>
      <point x="319" y="763" type="curve" smooth="yes"/>
      <point x="423" y="763"/>
      <point x="453" y="725"/>
      <point x="453" y="631" type="curve"/>
      <point x="453" y="532" type="line"/>
      <point x="458" y="478" type="line"/>
      <point x="458" y="358" type="line" smooth="yes"/>
      <point x="458" y="268"/>
      <point x="445" y="226"/>
      <point x="391" y="226" type="curve" smooth="yes"/>
      <point x="338" y="226"/>
      <point x="325" y="266"/>
      <point x="325" y="358" type="curve" smooth="yes"/>
      <point x="325" y="416"/>
      <point x="325" y="502"/>
      <point x="325" y="622" type="curve"/>
      <point x="56" y="622" type="line"/>
      <point x="45" y="565"/>
      <point x="41" y="504"/>
      <point x="41" y="444" type="curve" smooth="yes"/>
      <point x="41" y="384" type="line" smooth="yes"/>
      <point x="41" y="119"/>
      <point x="153" y="-19"/>
    </contour>
    <contour>
      <point x="122" y="418" type="line"/>
      <point x="562" y="418" type="line"/>
      <point x="562" y="622" type="line"/>
      <point x="122" y="622" type="line"/>
    </contour>
  </outline>
</glyph>
<glyph name="primemod" format="2">
  <advance width="341"/>
  <unicode hex="02B9"/>
  <outline>
    <contour>
      <point x="276" y="894" type="line"/>
      <point x="303" y="1324" type="line"/>
      <point x="38" y="1324" type="line"/>
      <point x="64" y="894" type="line"/>
    </contour>
  </outline>
</glyph>
<glyph name="doubleprimemod" format="2">
  <advance width="660"/>
  <unicode hex="02BA"/>
  <outline>
    <contour>
      <point x="383" y="894" type="line"/>
      <point x="595" y="894" type="line"/>
      <point x="622" y="1324" type="line"/>
      <point x="357" y="1324" type="line"/>
    </contour>
    <contour>
      <point x="64" y="894" type="line"/>
      <point x="276" y="894" type="line"/>
      <point x="303" y="1324" type="line"/>
      <point x="38" y="1324" type="line"/>
    </contour>
  </outline>
</glyph>
<glyph name="commaturnedmod" format="2">
  <advance width="506"/>
  <unicode hex="02BB"/>
  <anchor x="253" y="1006" name="_top"/>
  <anchor x="253" y="1416" name="top"/>
  <outline>
    <contour>
      <point x="124" y="1077" type="curve"/>
      <point x="375" y="1077" type="line"/>
      <point x="373" y="1108"/>
      <point x="371" y="1135"/>
      <point x="371" y="1163" type="curve" smooth="yes"/>
      <point x="371" y="1262"/>
      <point x="392" y="1333"/>
      <point x="425" y="1397" type="curve"/>
      <point x="229" y="1447" type="line"/>
      <point x="151" y="1363"/>
      <point x="119" y="1271"/>
      <point x="119" y="1160" type="curve" smooth="yes"/>
      <point x="119" y="1128"/>
      <point x="121" y="1103"/>
    </contour>
  </outline>
</glyph>
<glyph name="apostrophemod" format="2">
  <advance width="497"/>
  <unicode hex="02BC"/>
  <outline>
    <contour>
      <point x="369" y="1278" type="curve"/>
      <point x="125" y="1278" type="line"/>
      <point x="128" y="1234"/>
      <point x="130" y="1208"/>
      <point x="130" y="1170" type="curve" smooth="yes"/>
      <point x="130" y="1060"/>
      <point x="118" y="967"/>
      <point x="100" y="887" type="curve"/>
      <point x="274" y="842" type="line"/>
      <point x="344" y="943"/>
      <point x="377" y="1059"/>
      <point x="377" y="1191" type="curve" smooth="yes"/>
      <point x="377" y="1228"/>
      <point x="373" y="1255"/>
    </contour>
  </outline>
</glyph>
<glyph name="ringhalfright" format="2">
  <advance width="413"/>
  <unicode hex="02BE"/>
  <anchor x="100" y="1006" name="_top"/>
  <anchor x="100" y="1423" name="top"/>
  <outline>
    <contour>
      <point x="100" y="1307" type="line"/>
      <point x="141" y="1307"/>
      <point x="166" y="1286"/>
      <point x="166" y="1249" type="curve" smooth="yes"/>
      <point x="166" y="1245" type="line" smooth="yes"/>
      <point x="166" y="1207"/>
      <point x="141" y="1186"/>
      <point x="100" y="1186" type="curve"/>
      <point x="100" y="1063" type="line"/>
      <point x="252" y="1063"/>
      <point x="314" y="1142"/>
      <point x="314" y="1243" type="curve" smooth="yes"/>
      <point x="314" y="1250" type="line" smooth="yes"/>
      <point x="314" y="1352"/>
      <point x="252" y="1431"/>
      <point x="100" y="1431" type="curve"/>
    </contour>
  </outline>
</glyph>
<glyph name="ringhalfleft" format="2">
  <advance width="413"/>
  <unicode hex="02BF"/>
  <anchor x="313" y="1006" name="_top"/>
  <anchor x="313" y="1425" name="top"/>
  <outline>
    <contour>
      <point x="313" y="1307" type="curve"/>
      <point x="313" y="1431" type="line"/>
      <point x="161" y="1431"/>
      <point x="99" y="1352"/>
      <point x="99" y="1250" type="curve" smooth="yes"/>
      <point x="99" y="1243" type="line" smooth="yes"/>
      <point x="99" y="1142"/>
      <point x="161" y="1063"/>
      <point x="313" y="1063" type="curve"/>
      <point x="313" y="1186" type="line"/>
      <point x="272" y="1186"/>
      <point x="247" y="1207"/>
      <point x="247" y="1245" type="curve" smooth="yes"/>
      <point x="247" y="1249" type="line" smooth="yes"/>
      <point x="247" y="1286"/>
      <point x="272" y="1307"/>
    </contour>
  </outline>
</glyph>
<glyph name="verticallinemod" format="2">
  <advance width="437"/>
  <unicode hex="02C8"/>
  <anchor x="219" y="1006" name="_top"/>
  <anchor x="219" y="1423" name="top"/>
  <outline>
    <contour>
      <point x="100" y="1087" type="line"/>
      <point x="337" y="1087" type="line"/>
      <point x="337" y="1438" type="line"/>
      <point x="100" y="1438" type="line"/>
    </contour>
  </outline>
</glyph>
<glyph name="brevecomb" format="2">
  <unicode hex="0306"/>
  <anchor x="367" y="1006" name="_top"/>
  <anchor x="367" y="1366" name="top"/>
  <outline>
    <contour>
      <point x="367" y="1073" type="curve"/>
      <point x="550" y="1073"/>
      <point x="630" y="1174"/>
      <point x="630" y="1366" type="curve"/>
      <point x="444" y="1366" type="line"/>
      <point x="443" y="1295"/>
      <point x="421" y="1259"/>
      <point x="367" y="1259" type="curve" smooth="yes"/>
      <point x="313" y="1259"/>
      <point x="291" y="1295"/>
      <point x="290" y="1366" type="curve"/>
      <point x="104" y="1366" type="line"/>
      <point x="104" y="1174"/>
      <point x="184" y="1073"/>
    </contour>
  </outline>
</glyph>
<glyph name="hookabovecomb" format="2">
  <unicode hex="0309"/>
  <anchor x="210" y="1006" name="_top"/>
  <anchor x="220" y="1439" name="top"/>
  <outline>
    <contour>
      <point x="149" y="1062" type="curve"/>
      <point x="130" y="1199" type="line"/>
      <point x="182" y="1206"/>
      <point x="222" y="1224"/>
      <point x="222" y="1260" type="curve" smooth="yes"/>
      <point x="222" y="1286"/>
      <point x="205" y="1298"/>
      <point x="171" y="1298" type="curve" smooth="yes"/>
      <point x="143" y="1298"/>
      <point x="120" y="1292"/>
      <point x="97" y="1284" type="curve"/>
      <point x="107" y="1425" type="line"/>
      <point x="136" y="1437"/>
      <point x="181" y="1447"/>
      <point x="230" y="1447" type="curve" smooth="yes"/>
      <point x="349" y="1447"/>
      <point x="417" y="1392"/>
      <point x="417" y="1282" type="curve" smooth="yes"/>
      <point x="417" y="1141"/>
      <point x="308" y="1079"/>
    </contour>
  </outline>
</glyph>
<glyph name="hungarumlautcomb" format="2">
  <unicode hex="030B"/>
  <anchor x="338" y="1006" name="_top"/>
  <anchor x="438" y="1366" name="top"/>
  <outline>
    <contour>
      <point x="460" y="1366" type="line"/>
      <point x="385" y="1076" type="line"/>
      <point x="385" y="1076" type="line"/>
      <point x="574" y="1076" type="line"/>
      <point x="707" y="1366" type="line"/>
      <point x="707" y="1366" type="line"/>
    </contour>
    <contour>
      <point x="177" y="1366" type="line"/>
      <point x="100" y="1076" type="line"/>
      <point x="100" y="1076" type="line"/>
      <point x="289" y="1076" type="line"/>
      <point x="422" y="1356" type="line"/>
      <point x="422" y="1366" type="line"/>
    </contour>
  </outline>
</glyph>
<glyph name="caroncomb" format="2">
  <unicode hex="030C"/>
  <anchor x="380" y="1006" name="_top"/>
  <anchor x="380" y="1340" name="top"/>
  <outline>
    <contour>
      <point x="214" y="1076" type="line"/>
      <point x="545" y="1076" type="line"/>
      <point x="660" y="1366" type="line"/>
      <point x="660" y="1366" type="line"/>
      <point x="446" y="1366" type="line"/>
      <point x="384" y="1226" type="line"/>
      <point x="376" y="1226" type="line"/>
      <point x="314" y="1366" type="line"/>
      <point x="100" y="1366" type="line"/>
      <point x="100" y="1366" type="line"/>
    </contour>
  </outline>
</glyph>
<glyph name="dblgravecomb" format="2">
  <unicode hex="030F"/>
  <anchor x="469" y="1006" name="_top"/>
  <anchor x="369" y="1376" name="top"/>
  <outline>
    <contour>
      <point x="347" y="1366" type="line"/>
      <point x="100" y="1366" type="line"/>
      <point x="100" y="1366" type="line"/>
      <point x="233" y="1076" type="line"/>
      <point x="422" y="1076" type="line"/>
      <point x="422" y="1076" type="line"/>
    </contour>
    <contour>
      <point x="630" y="1366" type="line"/>
      <point x="385" y="1366" type="line"/>
      <point x="385" y="1356" type="line"/>
      <point x="518" y="1076" type="line"/>
      <point x="707" y="1076" type="line"/>
      <point x="707" y="1076" type="line"/>
    </contour>
  </outline>
</glyph>
<glyph name="breveinvertedcomb" format="2">
  <unicode hex="0311"/>
  <anchor x="367" y="1006" name="_top"/>
  <anchor x="367" y="1376" name="top"/>
  <outline>
    <contour>
      <point x="367" y="1368" type="curve"/>
      <point x="184" y="1368"/>
      <point x="104" y="1267"/>
      <point x="104" y="1075" type="curve"/>
      <point x="290" y="1075" type="line"/>
      <point x="291" y="1146"/>
      <point x="313" y="1182"/>
      <point x="367" y="1182" type="curve" smooth="yes"/>
      <point x="421" y="1182"/>
      <point x="443" y="1146"/>
      <point x="444" y="1075" type="curve"/>
      <point x="630" y="1075" type="line"/>
      <point x="630" y="1267"/>
      <point x="550" y="1368"/>
    </contour>
  </outline>
</glyph>
<glyph name="horncomb" format="2">
  <unicode hex="031B"/>
  <anchor x="321" y="1006" name="_topright"/>
  <anchor x="427" y="1192" name="topright"/>
  <outline>
    <contour>
      <point x="218" y="868" type="line"/>
      <point x="359" y="921"/>
      <point x="407" y="1011"/>
      <point x="407" y="1117" type="curve" smooth="yes"/>
      <point x="407" y="1142"/>
      <point x="404" y="1171"/>
      <point x="400" y="1192" type="curve"/>
      <point x="141" y="1192" type="line"/>
      <point x="143" y="1175"/>
      <point x="145" y="1152"/>
      <point x="145" y="1133" type="curve" smooth="yes"/>
      <point x="145" y="1081"/>
      <point x="136" y="1025"/>
      <point x="98" y="987" type="curve"/>
    </contour>
  </outline>
</glyph>
<glyph name="dotbelowcomb" format="2">
  <unicode hex="0323"/>
  <anchor x="248" y="0" name="_bottom"/>
  <anchor x="248" y="-386" name="bottom"/>
  <outline>
    <contour>
      <point x="247" y="-368" type="curve" smooth="yes"/>
      <point x="345" y="-368"/>
      <point x="396" y="-311"/>
      <point x="396" y="-216" type="curve" smooth="yes"/>
      <point x="396" y="-209" type="line" smooth="yes"/>
      <point x="396" y="-114"/>
      <point x="345" y="-57"/>
      <point x="247" y="-57" type="curve" smooth="yes"/>
      <point x="150" y="-57"/>
      <point x="100" y="-114"/>
      <point x="100" y="-209" type="curve" smooth="yes"/>
      <point x="100" y="-216" type="line" smooth="yes"/>
      <point x="100" y="-311"/>
      <point x="150" y="-368"/>
    </contour>
  </outline>
</glyph>
<glyph name="commaaccentcomb" format="2">
  <unicode hex="0326"/>
  <anchor x="253" y="0" name="_bottom"/>
  <anchor x="253" y="-450" name="bottom"/>
  <outline>
    <contour>
      <point x="382" y="-80" type="curve"/>
      <point x="131" y="-80" type="line"/>
      <point x="133" y="-111"/>
      <point x="135" y="-138"/>
      <point x="135" y="-166" type="curve" smooth="yes"/>
      <point x="135" y="-265"/>
      <point x="114" y="-336"/>
      <point x="81" y="-400" type="curve"/>
      <point x="277" y="-450" type="line"/>
      <point x="355" y="-366"/>
      <point x="387" y="-274"/>
      <point x="387" y="-163" type="curve" smooth="yes"/>
      <point x="387" y="-131"/>
      <point x="385" y="-106"/>
    </contour>
  </outline>
</glyph>
<glyph name="ogonekcomb" format="2">
  <unicode hex="0328"/>
  <anchor x="470" y="0" name="_ogonek"/>
  <outline>
    <contour>
      <point x="308" y="-347" type="curve" smooth="yes"/>
      <point x="361" y="-347"/>
      <point x="413" y="-336"/>
      <point x="451" y="-319" type="curve"/>
      <point x="470" y="-110" type="line"/>
      <point x="447" y="-117"/>
      <point x="425" y="-121"/>
      <point x="396" y="-121" type="curve" smooth="yes"/>
      <point x="350" y="-121"/>
      <point x="322" y="-106"/>
      <point x="322" y="-71" type="curve"/>
      <point x="322" y="-71" type="line"/>
      <point x="322" y="-32"/>
      <point x="359" y="-8"/>
      <point x="428" y="0" type="curve"/>
      <point x="428" y="8" type="line"/>
      <point x="226" y="8" type="line"/>
      <point x="226" y="-10" type="line"/>
      <point x="151" y="-46"/>
      <point x="106" y="-105"/>
      <point x="106" y="-183" type="curve"/>
      <point x="106" y="-184" type="line" smooth="yes"/>
      <point x="106" y="-293"/>
      <point x="187" y="-347"/>
    </contour>
  </outline>
</glyph>
<glyph name="strokeshortcomb" format="2">
  <unicode hex="0335"/>
  <anchor x="335" y="650" name="_center"/>
  <outline>
    <contour>
      <point x="102" y="554" type="line"/>
      <point x="568" y="554" type="line"/>
      <point x="568" y="746" type="line"/>
      <point x="102" y="746" type="line"/>
    </contour>
  </outline>
</glyph>
<glyph name="pi" format="2">
  <advance width="1005"/>
  <unicode hex="03C0"/>
  <outline>
    <contour>
      <point x="30" y="756" type="line"/>
      <point x="956" y="756" type="line"/>
      <point x="975" y="1006" type="line"/>
      <point x="30" y="1006" type="line"/>
    </contour>
    <contour>
      <point x="135" y="0" type="line"/>
      <point x="440" y="0" type="line"/>
      <point x="440" y="968" type="line"/>
      <point x="135" y="968" type="line"/>
    </contour>
    <contour>
      <point x="556" y="-2" type="line"/>
      <point x="861" y="-2" type="line"/>
      <point x="861" y="966" type="line"/>
      <point x="556" y="966" type="line"/>
    </contour>
  </outline>
</glyph>
<glyph name="llinebelow" format="2">
  <advance width="443"/>
  <unicode hex="1E3B"/>
  <anchor x="222.12" y="-267" name="bottom"/>
  <anchor x="222" y="667" name="center"/>
  <anchor x="222" y="1324" name="top"/>
  <anchor x="448" y="1324" name="topright"/>
  <outline>
    <contour>
      <point x="-6" y="-287" type="line"/>
      <point x="449" y="-287" type="line"/>
      <point x="449" y="-95" type="line"/>
      <point x="-6" y="-95" type="line"/>
    </contour>
    <component base="l"/>
  </outline>
</glyph>
<glyph name="Otildedieresis" format="2">
  <advance width="912"/>
  <unicode hex="1E4E"/>
  <anchor x="456" y="1937.28" name="top"/>
  <anchor x="456" y="0" name="bottom"/>
  <anchor x="456" y="639" name="center"/>
  <anchor x="672" y="0" name="ogonek"/>
  <anchor x="20" y="1278" name="topleft"/>
  <anchor x="910" y="1278" name="topright"/>
  <outline>
    <contour>
      <point x="303" y="1669" type="curve" smooth="yes"/>
      <point x="390" y="1669"/>
      <point x="434" y="1717"/>
      <point x="434" y="1809" type="curve" smooth="yes"/>
      <point x="434" y="1820" type="line" smooth="yes"/>
      <point x="434" y="1912"/>
      <point x="390" y="1960"/>
      <point x="303" y="1960" type="curve" smooth="yes"/>
      <point x="217" y="1960"/>
      <point x="174" y="1912"/>
      <point x="174" y="1820" type="curve" smooth="yes"/>
      <point x="174" y="1809" type="line" smooth="yes"/>
      <point x="174" y="1717"/>
      <point x="217" y="1669"/>
    </contour>
    <contour>
      <point x="607" y="1669" type="curve" smooth="yes"/>
      <point x="693" y="1669"/>
      <point x="737" y="1717"/>
      <point x="737" y="1809" type="curve" smooth="yes"/>
      <point x="737" y="1820" type="line" smooth="yes"/>
      <point x="737" y="1912"/>
      <point x="693" y="1960"/>
      <point x="607" y="1960" type="curve" smooth="yes"/>
      <point x="520" y="1960"/>
      <point x="478" y="1912"/>
      <point x="478" y="1820" type="curve" smooth="yes"/>
      <point x="478" y="1809" type="line" smooth="yes"/>
      <point x="478" y="1717"/>
      <point x="520" y="1669"/>
    </contour>
    <component base="O"/>
    <component base="tildecomb.case" xOffset="76"/>
  </outline>
</glyph>
<glyph name="otildedieresis" format="2">
  <advance width="843"/>
  <unicode hex="1E4F"/>
  <anchor x="423" y="1711.36" name="top"/>
  <anchor x="422" y="0" name="bottom"/>
  <anchor x="422" y="503" name="center"/>
  <anchor x="655" y="10" name="ogonek"/>
  <anchor x="851" y="1006" name="topright"/>
  <outline>
    <contour>
      <point x="270" y="1424" type="curve" smooth="yes"/>
      <point x="357" y="1424"/>
      <point x="401" y="1472"/>
      <point x="401" y="1564" type="curve" smooth="yes"/>
      <point x="401" y="1575" type="line" smooth="yes"/>
      <point x="401" y="1667"/>
      <point x="357" y="1715"/>
      <point x="270" y="1715" type="curve" smooth="yes"/>
      <point x="184" y="1715"/>
      <point x="141" y="1667"/>
      <point x="141" y="1575" type="curve" smooth="yes"/>
      <point x="141" y="1564" type="line" smooth="yes"/>
      <point x="141" y="1472"/>
      <point x="184" y="1424"/>
    </contour>
    <contour>
      <point x="574" y="1424" type="curve" smooth="yes"/>
      <point x="660" y="1424"/>
      <point x="704" y="1472"/>
      <point x="704" y="1564" type="curve" smooth="yes"/>
      <point x="704" y="1575" type="line" smooth="yes"/>
      <point x="704" y="1667"/>
      <point x="660" y="1715"/>
      <point x="574" y="1715" type="curve" smooth="yes"/>
      <point x="487" y="1715"/>
      <point x="445" y="1667"/>
      <point x="445" y="1575" type="curve" smooth="yes"/>
      <point x="445" y="1564" type="line" smooth="yes"/>
      <point x="445" y="1472"/>
      <point x="487" y="1424"/>
    </contour>
    <component base="o"/>
    <component base="tildecomb" xOffset="43"/>
  </outline>
</glyph>
<glyph name="Sacutedotaccent" format="2">
  <advance width="719"/>
  <unicode hex="1E64"/>
  <anchor x="347" y="1932.76" name="top"/>
  <anchor x="347" y="0" name="bottom"/>
  <outline>
    <contour>
      <point x="346" y="1679" type="curve" smooth="yes"/>
      <point x="440" y="1679"/>
      <point x="489" y="1730"/>
      <point x="489" y="1816" type="curve" smooth="yes"/>
      <point x="489" y="1822" type="line" smooth="yes"/>
      <point x="489" y="1908"/>
      <point x="440" y="1959"/>
      <point x="346" y="1959" type="curve" smooth="yes"/>
      <point x="253" y="1959"/>
      <point x="205" y="1908"/>
      <point x="205" y="1822" type="curve" smooth="yes"/>
      <point x="205" y="1816" type="line" smooth="yes"/>
      <point x="205" y="1730"/>
      <point x="253" y="1679"/>
    </contour>
    <component base="S"/>
    <component base="acutecomb.case" xOffset="115"/>
  </outline>
</glyph>
<glyph name="sacutedotaccent" format="2">
  <advance width="661"/>
  <unicode hex="1E65"/>
  <anchor x="320.08" y="1711.36" name="top"/>
  <anchor x="324" y="0" name="bottom"/>
  <outline>
    <contour>
      <point x="319" y="1420" type="curve" smooth="yes"/>
      <point x="413" y="1420"/>
      <point x="462" y="1475"/>
      <point x="462" y="1566" type="curve" smooth="yes"/>
      <point x="462" y="1573" type="line" smooth="yes"/>
      <point x="462" y="1664"/>
      <point x="413" y="1719"/>
      <point x="319" y="1719" type="curve" smooth="yes"/>
      <point x="226" y="1719"/>
      <point x="178" y="1664"/>
      <point x="178" y="1573" type="curve" smooth="yes"/>
      <point x="178" y="1566" type="line" smooth="yes"/>
      <point x="178" y="1475"/>
      <point x="226" y="1420"/>
    </contour>
    <component base="s"/>
    <component base="acutecomb" xOffset="105"/>
  </outline>
</glyph>
<glyph name="Scarondotaccent" format="2">
  <advance width="719"/>
  <unicode hex="1E66"/>
  <anchor x="347" y="1912.76" name="top"/>
  <anchor x="347" y="0" name="bottom"/>
  <outline>
    <contour>
      <point x="346" y="1659" type="curve" smooth="yes"/>
      <point x="440" y="1659"/>
      <point x="489" y="1710"/>
      <point x="489" y="1796" type="curve" smooth="yes"/>
      <point x="489" y="1802" type="line" smooth="yes"/>
      <point x="489" y="1888"/>
      <point x="440" y="1939"/>
      <point x="346" y="1939" type="curve" smooth="yes"/>
      <point x="253" y="1939"/>
      <point x="205" y="1888"/>
      <point x="205" y="1802" type="curve" smooth="yes"/>
      <point x="205" y="1796" type="line" smooth="yes"/>
      <point x="205" y="1710"/>
      <point x="253" y="1659"/>
    </contour>
    <component base="S"/>
    <component base="caroncomb.case" xOffset="-63"/>
  </outline>
</glyph>
<glyph name="scarondotaccent" format="2">
  <advance width="661"/>
  <unicode hex="1E67"/>
  <anchor x="320.08" y="1685.36" name="top"/>
  <anchor x="324" y="0" name="bottom"/>
  <outline>
    <contour>
      <point x="319" y="1394" type="curve" smooth="yes"/>
      <point x="413" y="1394"/>
      <point x="462" y="1449"/>
      <point x="462" y="1540" type="curve" smooth="yes"/>
      <point x="462" y="1547" type="line" smooth="yes"/>
      <point x="462" y="1638"/>
      <point x="413" y="1693"/>
      <point x="319" y="1693" type="curve" smooth="yes"/>
      <point x="226" y="1693"/>
      <point x="178" y="1638"/>
      <point x="178" y="1547" type="curve" smooth="yes"/>
      <point x="178" y="1540" type="line" smooth="yes"/>
      <point x="178" y="1449"/>
      <point x="226" y="1394"/>
    </contour>
    <component base="s"/>
    <component base="caroncomb" xOffset="-60"/>
  </outline>
</glyph>
<glyph name="Ohorntilde" format="2">
  <advance width="912"/>
  <unicode hex="1EE0"/>
  <anchor x="456" y="1611" name="top"/>
  <anchor x="456" y="0" name="bottom"/>
  <anchor x="456" y="639" name="center"/>
  <anchor x="672" y="0" name="ogonek"/>
  <anchor x="20" y="1278" name="topleft"/>
  <anchor x="995" y="1468" name="topright"/>
  <outline>
    <contour>
      <point x="559" y="1360" type="curve" smooth="yes"/>
      <point x="666" y="1360"/>
      <point x="707" y="1445"/>
      <point x="707" y="1571" type="curve" smooth="yes"/>
      <point x="707" y="1609" type="line"/>
      <point x="563" y="1609" type="line"/>
      <point x="563" y="1607" type="line"/>
      <point x="563" y="1568"/>
      <point x="554" y="1551"/>
      <point x="527" y="1551" type="curve" smooth="yes"/>
      <point x="481" y="1551"/>
      <point x="432" y="1597"/>
      <point x="358" y="1597" type="curve" smooth="yes"/>
      <point x="246" y="1597"/>
      <point x="204" y="1510"/>
      <point x="204" y="1392" type="curve" smooth="yes"/>
      <point x="204" y="1348" type="line"/>
      <point x="348" y="1348" type="line"/>
      <point x="348" y="1349" type="line"/>
      <point x="348" y="1387"/>
      <point x="357" y="1407"/>
      <point x="387" y="1407" type="curve" smooth="yes"/>
      <point x="432" y="1407"/>
      <point x="492" y="1360"/>
    </contour>
    <component base="Ohorn"/>
  </outline>
</glyph>
<glyph name="Uhorntilde" format="2">
  <advance width="925"/>
  <unicode hex="1EEE"/>
  <anchor x="463" y="1611" name="top"/>
  <anchor x="463" y="0" name="bottom"/>
  <anchor x="675" y="0" name="ogonek"/>
  <anchor x="1038" y="1468" name="topright"/>
  <outline>
    <contour>
      <point x="566" y="1360" type="curve" smooth="yes"/>
      <point x="673" y="1360"/>
      <point x="714" y="1445"/>
      <point x="714" y="1571" type="curve" smooth="yes"/>
      <point x="714" y="1609" type="line"/>
      <point x="570" y="1609" type="line"/>
      <point x="570" y="1607" type="line"/>
      <point x="570" y="1568"/>
      <point x="561" y="1551"/>
      <point x="534" y="1551" type="curve" smooth="yes"/>
      <point x="488" y="1551"/>
      <point x="439" y="1597"/>
      <point x="365" y="1597" type="curve" smooth="yes"/>
      <point x="253" y="1597"/>
      <point x="211" y="1510"/>
      <point x="211" y="1392" type="curve" smooth="yes"/>
      <point x="211" y="1348" type="line"/>
      <point x="355" y="1348" type="line"/>
      <point x="355" y="1349" type="line"/>
      <point x="355" y="1387"/>
      <point x="364" y="1407"/>
      <point x="394" y="1407" type="curve" smooth="yes"/>
      <point x="439" y="1407"/>
      <point x="499" y="1360"/>
    </contour>
    <component base="Uhorn"/>
  </outline>
</glyph>
<glyph name="dagger" format="2">
  <advance width="787"/>
  <unicode hex="2020"/>
  <outline>
    <contour>
      <point x="40" y="756" type="line"/>
      <point x="397" y="766" type="line"/>
      <point x="747" y="756" type="line"/>
      <point x="747" y="1006" type="line"/>
      <point x="393" y="996" type="line"/>
      <point x="40" y="1006" type="line"/>
    </contour>
    <contour>
      <point x="233" y="601" type="line"/>
      <point x="233" y="346" type="line"/>
      <point x="303" y="-331" type="line"/>
      <point x="483" y="-331" type="line"/>
      <point x="553" y="346" type="line"/>
      <point x="553" y="601" type="line"/>
      <point x="543" y="863" type="line"/>
      <point x="543" y="911" type="line"/>
      <point x="553" y="1278" type="line"/>
      <point x="233" y="1278" type="line"/>
      <point x="243" y="911" type="line"/>
      <point x="243" y="863" type="line"/>
    </contour>
  </outline>
</glyph>
<glyph name="daggerdbl" format="2">
  <advance width="819"/>
  <unicode hex="2021"/>
  <outline>
    <contour>
      <point x="56" y="756" type="line"/>
      <point x="413" y="766" type="line"/>
      <point x="763" y="756" type="line"/>
      <point x="763" y="1006" type="line"/>
      <point x="409" y="996" type="line"/>
      <point x="56" y="1006" type="line"/>
    </contour>
    <contour>
      <point x="56" y="191" type="line"/>
      <point x="56" y="-59" type="line"/>
      <point x="409" y="-49" type="line"/>
      <point x="763" y="-59" type="line"/>
      <point x="763" y="191" type="line"/>
      <point x="413" y="181" type="line"/>
    </contour>
    <contour>
      <point x="249" y="-331" type="line"/>
      <point x="569" y="-331" type="line"/>
      <point x="559" y="36" type="line"/>
      <point x="559" y="84" type="line"/>
      <point x="569" y="346" type="line"/>
      <point x="569" y="601" type="line"/>
      <point x="559" y="863" type="line"/>
      <point x="559" y="911" type="line"/>
      <point x="569" y="1278" type="line"/>
      <point x="249" y="1278" type="line"/>
      <point x="259" y="911" type="line"/>
      <point x="259" y="863" type="line"/>
      <point x="249" y="601" type="line"/>
      <point x="249" y="346" type="line"/>
      <point x="259" y="84" type="line"/>
      <point x="259" y="36" type="line"/>
    </contour>
  </outline>
</glyph>
<glyph name="perthousand" format="2">
  <advance width="1734"/>
  <unicode hex="2030"/>
  <outline>
    <contour>
      <point x="1451" y="-24" type="curve" smooth="yes"/>
      <point x="1613" y="-24"/>
      <point x="1692" y="68"/>
      <point x="1692" y="234" type="curve" smooth="yes"/>
      <point x="1692" y="389" type="line" smooth="yes"/>
      <point x="1692" y="555"/>
      <point x="1613" y="647"/>
      <point x="1451" y="647" type="curve" smooth="yes"/>
      <point x="1289" y="647"/>
      <point x="1210" y="555"/>
      <point x="1210" y="389" type="curve" smooth="yes"/>
      <point x="1210" y="234" type="line" smooth="yes"/>
      <point x="1210" y="68"/>
      <point x="1289" y="-24"/>
    </contour>
    <contour>
      <point x="1451" y="134" type="curve" smooth="yes"/>
      <point x="1414" y="134"/>
      <point x="1401" y="162"/>
      <point x="1401" y="224" type="curve" smooth="yes"/>
      <point x="1401" y="398" type="line" smooth="yes"/>
      <point x="1401" y="461"/>
      <point x="1414" y="489"/>
      <point x="1451" y="489" type="curve" smooth="yes"/>
      <point x="1488" y="489"/>
      <point x="1501" y="461"/>
      <point x="1501" y="398" type="curve" smooth="yes"/>
      <point x="1501" y="224" type="line" smooth="yes"/>
      <point x="1501" y="162"/>
      <point x="1488" y="134"/>
    </contour>
    <component base="percent"/>
  </outline>
</glyph>
<glyph name="minute" format="2">
  <advance width="360"/>
  <unicode hex="2032"/>
  <outline>
    <contour>
      <point x="265" y="824" type="line"/>
      <point x="348" y="1324" type="line"/>
      <point x="66" y="1324" type="line"/>
      <point x="46" y="824" type="line"/>
    </contour>
  </outline>
</glyph>
<glyph name="commercialMinusSign" format="2">
  <advance width="714"/>
  <unicode hex="2052"/>
  <outline>
    <contour>
      <point x="54" y="0" type="line"/>
      <point x="249" y="0" type="line"/>
      <point x="660" y="1278" type="line"/>
      <point x="469" y="1278" type="line"/>
    </contour>
    <component base="period" xOffset="-26" yOffset="949"/>
    <component base="period" xOffset="340"/>
  </outline>
</glyph>
<glyph name="colonsign" format="2">
  <advance width="674"/>
  <unicode hex="20A1"/>
  <anchor x="382" y="0" name="bottom"/>
  <anchor x="382" y="1278" name="top"/>
  <outline>
    <contour>
      <point x="179" y="-165" type="line"/>
      <point x="305" y="-165" type="line"/>
      <point x="329" y="183" type="line"/>
      <point x="203" y="183" type="line"/>
    </contour>
    <contour>
      <point x="349" y="-165" type="line"/>
      <point x="475" y="-165" type="line"/>
      <point x="499" y="183" type="line"/>
      <point x="373" y="183" type="line"/>
    </contour>
    <contour>
      <point x="230" y="1134" type="line"/>
      <point x="356" y="1134" type="line"/>
      <point x="377" y="1434" type="line"/>
      <point x="251" y="1434" type="line"/>
    </contour>
    <contour>
      <point x="400" y="1134" type="line"/>
      <point x="526" y="1134" type="line"/>
      <point x="547" y="1434" type="line"/>
      <point x="421" y="1434" type="line"/>
    </contour>
    <component base="C"/>
  </outline>
</glyph>
<glyph name="franc" format="2">
  <advance width="741"/>
  <unicode hex="20A3"/>
  <outline>
    <contour>
      <point x="124" y="0" type="line"/>
      <point x="440" y="0" type="line"/>
      <point x="440" y="1278" type="line"/>
      <point x="124" y="1278" type="line"/>
    </contour>
    <contour>
      <point x="10" y="168" type="line"/>
      <point x="623" y="168" type="line"/>
      <point x="634" y="359" type="line"/>
      <point x="21" y="359" type="line"/>
    </contour>
    <contour>
      <point x="334" y="501" type="line"/>
      <point x="688" y="501" type="line"/>
      <point x="688" y="788" type="line"/>
      <point x="334" y="788" type="line"/>
    </contour>
    <contour>
      <point x="334" y="991" type="line"/>
      <point x="699" y="991" type="line"/>
      <point x="699" y="1278" type="line"/>
      <point x="334" y="1278" type="line"/>
    </contour>
  </outline>
</glyph>
<glyph name="lira" format="2">
  <advance width="732"/>
  <unicode hex="20A4"/>
  <outline>
    <contour>
      <point x="273" y="285" type="line"/>
      <point x="273" y="295" type="line"/>
      <point x="400" y="313"/>
      <point x="470" y="353"/>
      <point x="470" y="479" type="curve" smooth="yes"/>
      <point x="470" y="620"/>
      <point x="440" y="784"/>
      <point x="440" y="925" type="curve" smooth="yes"/>
      <point x="440" y="985"/>
      <point x="462" y="1022"/>
      <point x="544" y="1022" type="curve" smooth="yes"/>
      <point x="590" y="1022"/>
      <point x="634" y="1016"/>
      <point x="680" y="1005" type="curve"/>
      <point x="662" y="1272" type="line"/>
      <point x="607" y="1289"/>
      <point x="534" y="1300"/>
      <point x="456" y="1300" type="curve" smooth="yes"/>
      <point x="208" y="1300"/>
      <point x="120" y="1183"/>
      <point x="120" y="969" type="curve" smooth="yes"/>
      <point x="120" y="825"/>
      <point x="150" y="660"/>
      <point x="150" y="516" type="curve" smooth="yes"/>
      <point x="150" y="378"/>
      <point x="125" y="341"/>
      <point x="83" y="301" type="curve" smooth="yes"/>
      <point x="57" y="277" type="line"/>
      <point x="57" y="0" type="line"/>
      <point x="702" y="0" type="line"/>
      <point x="702" y="285" type="line"/>
    </contour>
    <contour>
      <point x="61" y="873" type="line"/>
      <point x="50" y="682" type="line"/>
      <point x="641" y="682" type="line"/>
      <point x="652" y="873" type="line"/>
    </contour>
    <contour>
      <point x="61" y="593" type="line"/>
      <point x="50" y="411" type="line"/>
      <point x="641" y="411" type="line"/>
      <point x="652" y="593" type="line"/>
    </contour>
  </outline>
</glyph>
<glyph name="naira" format="2">
  <advance width="1091"/>
  <unicode hex="20A6"/>
  <outline>
    <contour>
      <point x="124" y="0" type="line"/>
      <point x="411" y="0" type="line"/>
      <point x="411" y="285" type="line"/>
      <point x="382" y="989" type="line"/>
      <point x="393" y="989" type="line"/>
      <point x="465" y="648" type="line"/>
      <point x="648" y="648" type="line"/>
      <point x="534" y="1280" type="line"/>
      <point x="124" y="1280" type="line"/>
    </contour>
    <contour>
      <point x="10" y="566" type="line"/>
      <point x="1069" y="566" type="line"/>
      <point x="1081" y="779" type="line"/>
      <point x="22" y="779" type="line"/>
    </contour>
    <contour>
      <point x="564" y="0" type="line"/>
      <point x="967" y="0" type="line"/>
      <point x="967" y="1280" type="line"/>
      <point x="680" y="1280" type="line"/>
      <point x="680" y="995" type="line"/>
      <point x="709" y="308" type="line"/>
      <point x="698" y="308" type="line"/>
      <point x="628" y="648" type="line"/>
      <point x="445" y="648" type="line"/>
    </contour>
  </outline>
</glyph>
<glyph name="won" format="2">
  <advance width="1314"/>
  <unicode hex="20A9"/>
  <outline>
    <contour>
      <point x="153" y="0" type="line"/>
      <point x="573" y="0" type="line"/>
      <point x="635" y="657" type="line"/>
      <point x="456" y="657" type="line"/>
      <point x="428" y="355" type="line"/>
      <point x="414" y="215" type="line"/>
      <point x="403" y="215" type="line"/>
      <point x="395" y="355" type="line"/>
      <point x="348" y="1278" type="line"/>
      <point x="31" y="1278" type="line"/>
    </contour>
    <contour>
      <point x="739" y="0" type="line"/>
      <point x="1159" y="0" type="line"/>
      <point x="1277" y="1278" type="line"/>
      <point x="964" y="1278" type="line"/>
      <point x="914" y="355" type="line"/>
      <point x="905" y="215" type="line"/>
      <point x="894" y="215" type="line"/>
      <point x="880" y="355" type="line"/>
      <point x="853" y="657" type="line"/>
      <point x="675" y="657" type="line"/>
    </contour>
    <contour>
      <point x="4" y="566" type="line"/>
      <point x="1287" y="566" type="line"/>
      <point x="1299" y="779" type="line"/>
      <point x="16" y="779" type="line"/>
    </contour>
    <contour>
      <point x="501" y="1260" type="line"/>
      <point x="446" y="657" type="line"/>
      <point x="620" y="657" type="line"/>
      <point x="636" y="879" type="line"/>
      <point x="650" y="1055" type="line"/>
      <point x="661" y="1055" type="line"/>
      <point x="674" y="879" type="line"/>
      <point x="690" y="657" type="line"/>
      <point x="863" y="657" type="line"/>
      <point x="809" y="1260" type="line"/>
    </contour>
  </outline>
</glyph>
<glyph name="uni20AA" format="2">
  <advance width="1582"/>
  <unicode hex="20AA"/>
  <outline>
    <contour>
      <point x="464" y="0" type="line"/>
      <point x="1107" y="0" type="line" smooth="yes"/>
      <point x="1388" y="0"/>
      <point x="1508" y="141"/>
      <point x="1508" y="384" type="curve" smooth="yes"/>
      <point x="1508" y="1126" type="line"/>
      <point x="1218" y="1126" type="line"/>
      <point x="1218" y="384" type="line" smooth="yes"/>
      <point x="1218" y="298"/>
      <point x="1192" y="245"/>
      <point x="1091" y="245" type="curve" smooth="yes"/>
      <point x="744" y="245" type="line"/>
      <point x="744" y="785" type="line"/>
      <point x="464" y="785" type="line"/>
    </contour>
    <contour>
      <point x="74" y="1115" type="line"/>
      <point x="74" y="0" type="line"/>
      <point x="364" y="0" type="line"/>
      <point x="364" y="870" type="line"/>
      <point x="711" y="870" type="line" smooth="yes"/>
      <point x="817" y="870"/>
      <point x="844" y="817"/>
      <point x="844" y="731" type="curve" smooth="yes"/>
      <point x="844" y="330" type="line"/>
      <point x="1124" y="330" type="line"/>
      <point x="1124" y="731" type="line" smooth="yes"/>
      <point x="1124" y="974"/>
      <point x="1013" y="1115"/>
      <point x="717" y="1115" type="curve" smooth="yes"/>
    </contour>
  </outline>
</glyph>
<glyph name="dong" format="2">
  <advance width="869"/>
  <unicode hex="20AB"/>
  <anchor x="433.245" y="-267" name="bottom"/>
  <anchor x="433" y="503" name="center"/>
  <anchor x="433" y="1324" name="top"/>
  <anchor x="871" y="1324" name="topright"/>
  <outline>
    <contour>
      <point x="53" y="-287" type="line"/>
      <point x="812" y="-287" type="line"/>
      <point x="812" y="-95" type="line"/>
      <point x="53" y="-95" type="line"/>
    </contour>
    <component base="dcroat"/>
  </outline>
</glyph>
<glyph name="kip" format="2">
  <advance width="946"/>
  <unicode hex="20AD"/>
  <anchor x="522" y="0" name="bottom"/>
  <anchor x="522" y="1278" name="top"/>
  <outline>
    <contour>
      <point x="588" y="779" type="line"/>
      <point x="576" y="566" type="line"/>
      <point x="905" y="566" type="line"/>
      <point x="917" y="779" type="line"/>
    </contour>
    <contour>
      <point x="294" y="566" type="line"/>
      <point x="306" y="779" type="line"/>
      <point x="22" y="779" type="line"/>
      <point x="10" y="566" type="line"/>
    </contour>
    <component base="K" xOffset="50"/>
  </outline>
</glyph>
<glyph name="uni20AE" format="2">
  <advance width="766"/>
  <unicode hex="20AE"/>
  <anchor x="383" y="0" name="bottom"/>
  <anchor x="383" y="639" name="center"/>
  <anchor x="383" y="1278" name="top"/>
  <outline>
    <contour>
      <point x="668" y="882" type="line"/>
      <point x="99" y="596" type="line"/>
      <point x="99" y="393" type="line"/>
      <point x="668" y="679" type="line"/>
    </contour>
    <contour>
      <point x="668" y="592" type="line"/>
      <point x="99" y="306" type="line"/>
      <point x="99" y="112" type="line"/>
      <point x="668" y="398" type="line"/>
    </contour>
    <component base="T"/>
  </outline>
</glyph>
<glyph name="peso" format="2">
  <advance width="1012"/>
  <unicode hex="20B1"/>
  <outline>
    <contour>
      <point x="329" y="341" type="line"/>
      <point x="500" y="341" type="line" smooth="yes"/>
      <point x="773" y="341"/>
      <point x="888" y="465"/>
      <point x="888" y="737" type="curve" smooth="yes"/>
      <point x="888" y="881" type="line" smooth="yes"/>
      <point x="888" y="1142"/>
      <point x="773" y="1278"/>
      <point x="496" y="1278" type="curve" smooth="yes"/>
      <point x="329" y="1278" type="line"/>
      <point x="329" y="1011" type="line"/>
      <point x="485" y="1011" type="line" smooth="yes"/>
      <point x="557" y="1011"/>
      <point x="577" y="975"/>
      <point x="577" y="877" type="curve" smooth="yes"/>
      <point x="577" y="741" type="line" smooth="yes"/>
      <point x="577" y="643"/>
      <point x="557" y="608"/>
      <point x="485" y="608" type="curve" smooth="yes"/>
      <point x="329" y="608" type="line"/>
    </contour>
    <contour>
      <point x="20" y="561" type="line"/>
      <point x="294" y="561" type="line"/>
      <point x="283" y="743" type="line"/>
      <point x="31" y="743" type="line"/>
    </contour>
    <contour>
      <point x="134" y="0" type="line"/>
      <point x="443" y="0" type="line"/>
      <point x="443" y="378" type="line"/>
      <point x="441" y="533" type="line"/>
      <point x="441" y="1278" type="line"/>
      <point x="134" y="1278" type="line"/>
    </contour>
    <contour>
      <point x="20" y="832" type="line"/>
      <point x="294" y="832" type="line"/>
      <point x="283" y="1023" type="line"/>
      <point x="31" y="1023" type="line"/>
    </contour>
    <contour>
      <point x="733" y="561" type="line"/>
      <point x="991" y="561" type="line"/>
      <point x="1002" y="743" type="line"/>
      <point x="722" y="743" type="line"/>
    </contour>
    <contour>
      <point x="733" y="832" type="line"/>
      <point x="991" y="832" type="line"/>
      <point x="1002" y="1023" type="line"/>
      <point x="722" y="1023" type="line"/>
    </contour>
  </outline>
</glyph>
<glyph name="guarani" format="2">
  <advance width="861"/>
  <unicode hex="20B2"/>
  <outline>
    <contour>
      <point x="603" y="1134" type="line"/>
      <point x="603" y="1434" type="line"/>
      <point x="337" y="1434" type="line"/>
      <point x="337" y="1134" type="line"/>
    </contour>
    <contour>
      <point x="603" y="-165" type="line"/>
      <point x="603" y="183" type="line"/>
      <point x="337" y="183" type="line"/>
      <point x="337" y="-165" type="line"/>
    </contour>
    <contour>
      <point x="443" y="-22" type="curve" smooth="yes"/>
      <point x="645" y="-22"/>
      <point x="734" y="48"/>
      <point x="796" y="118" type="curve"/>
      <point x="796" y="763" type="line"/>
      <point x="452" y="763" type="line"/>
      <point x="452" y="524" type="line"/>
      <point x="579" y="524" type="line"/>
      <point x="530" y="638" type="line"/>
      <point x="530" y="280" type="line"/>
      <point x="518" y="271"/>
      <point x="492" y="261"/>
      <point x="457" y="261" type="curve" smooth="yes"/>
      <point x="395" y="261"/>
      <point x="368" y="300"/>
      <point x="368" y="385" type="curve" smooth="yes"/>
      <point x="368" y="772" type="line" smooth="yes"/>
      <point x="368" y="941"/>
      <point x="419" y="1015"/>
      <point x="570" y="1015" type="curve" smooth="yes"/>
      <point x="657" y="1015"/>
      <point x="728" y="982"/>
      <point x="774" y="951" type="curve"/>
      <point x="752" y="1230" type="line"/>
      <point x="701" y="1265"/>
      <point x="600" y="1300"/>
      <point x="485" y="1300" type="curve" smooth="yes"/>
      <point x="206" y="1300"/>
      <point x="55" y="1137"/>
      <point x="55" y="791" type="curve" smooth="yes"/>
      <point x="55" y="399" type="line" smooth="yes"/>
      <point x="55" y="136"/>
      <point x="120" y="-22"/>
    </contour>
  </outline>
</glyph>
<glyph name="cedi" format="2">
  <advance width="674"/>
  <unicode hex="20B5"/>
  <anchor x="382" y="0" name="bottom"/>
  <anchor x="382" y="1278" name="top"/>
  <outline>
    <contour>
      <point x="255" y="-165" type="line"/>
      <point x="521" y="-165" type="line"/>
      <point x="521" y="183" type="line"/>
      <point x="255" y="183" type="line"/>
    </contour>
    <contour>
      <point x="255" y="1134" type="line"/>
      <point x="521" y="1134" type="line"/>
      <point x="521" y="1434" type="line"/>
      <point x="255" y="1434" type="line"/>
    </contour>
    <component base="C"/>
  </outline>
</glyph>
<glyph name="liraTurkish" format="2">
  <advance width="872"/>
  <unicode hex="20BA"/>
  <outline>
    <contour>
      <point x="86" y="0" type="line"/>
      <point x="328" y="0" type="line"/>
      <point x="671" y="0"/>
      <point x="822" y="156"/>
      <point x="824" y="473" type="curve" smooth="yes"/>
      <point x="824" y="617" type="line"/>
      <point x="509" y="617" type="line"/>
      <point x="509" y="473" type="line" smooth="yes"/>
      <point x="508" y="326"/>
      <point x="463" y="286"/>
      <point x="407" y="285" type="curve"/>
      <point x="406" y="285" type="line"/>
      <point x="406" y="1278" type="line"/>
      <point x="86" y="1278" type="line"/>
    </contour>
    <contour>
      <point x="569" y="1185" type="line"/>
      <point x="0" y="899" type="line"/>
      <point x="0" y="696" type="line"/>
      <point x="569" y="982" type="line"/>
    </contour>
    <contour>
      <point x="569" y="895" type="line"/>
      <point x="0" y="609" type="line"/>
      <point x="0" y="415" type="line"/>
      <point x="569" y="701" type="line"/>
    </contour>
  </outline>
</glyph>
<glyph name="manat" format="2">
  <advance width="1245"/>
  <unicode hex="20BC"/>
  <outline>
    <contour>
      <point x="623" y="1300" type="curve" smooth="yes"/>
      <point x="258" y="1300"/>
      <point x="68" y="1113"/>
      <point x="68" y="754" type="curve" smooth="yes"/>
      <point x="68" y="0" type="line"/>
      <point x="388" y="0" type="line"/>
      <point x="388" y="783" type="line" smooth="yes"/>
      <point x="388" y="952"/>
      <point x="462" y="1030"/>
      <point x="623" y="1030" type="curve" smooth="yes"/>
      <point x="783" y="1030"/>
      <point x="857" y="952"/>
      <point x="857" y="783" type="curve" smooth="yes"/>
      <point x="857" y="0" type="line"/>
      <point x="1177" y="0" type="line"/>
      <point x="1177" y="754" type="line" smooth="yes"/>
      <point x="1177" y="1113"/>
      <point x="987" y="1300"/>
    </contour>
    <contour>
      <point x="756" y="0" type="line"/>
      <point x="756" y="1434" type="line"/>
      <point x="490" y="1434" type="line"/>
      <point x="490" y="0" type="line"/>
    </contour>
  </outline>
</glyph>
<glyph name="ruble" format="2">
  <advance width="926"/>
  <unicode hex="20BD"/>
  <outline>
    <contour>
      <point x="329" y="430" type="line"/>
      <point x="500" y="430" type="line" smooth="yes"/>
      <point x="773" y="430"/>
      <point x="888" y="554"/>
      <point x="888" y="826" type="curve" smooth="yes"/>
      <point x="888" y="881" type="line" smooth="yes"/>
      <point x="888" y="1142"/>
      <point x="773" y="1278"/>
      <point x="496" y="1278" type="curve" smooth="yes"/>
      <point x="329" y="1278" type="line"/>
      <point x="329" y="1011" type="line"/>
      <point x="485" y="1011" type="line" smooth="yes"/>
      <point x="557" y="1011"/>
      <point x="577" y="975"/>
      <point x="577" y="877" type="curve" smooth="yes"/>
      <point x="577" y="830" type="line" smooth="yes"/>
      <point x="577" y="732"/>
      <point x="557" y="697"/>
      <point x="485" y="697" type="curve" smooth="yes"/>
      <point x="329" y="697" type="line"/>
    </contour>
    <contour>
      <point x="20" y="138" type="line"/>
      <point x="633" y="138" type="line"/>
      <point x="644" y="329" type="line"/>
      <point x="31" y="329" type="line"/>
    </contour>
    <contour>
      <point x="20" y="429" type="line"/>
      <point x="298" y="429" type="line"/>
      <point x="298" y="620" type="line"/>
      <point x="31" y="620" type="line"/>
    </contour>
    <contour>
      <point x="134" y="0" type="line"/>
      <point x="443" y="0" type="line"/>
      <point x="443" y="467" type="line"/>
      <point x="441" y="622" type="line"/>
      <point x="441" y="1278" type="line"/>
      <point x="134" y="1278" type="line"/>
    </contour>
  </outline>
</glyph>
<glyph name="literSign" format="2">
  <advance width="803"/>
  <unicode hex="2113"/>
  <outline>
    <contour>
      <point x="243" y="572" type="curve"/>
      <point x="243" y="299" type="line"/>
      <point x="550" y="420"/>
      <point x="759" y="541"/>
      <point x="759" y="858" type="curve" smooth="yes"/>
      <point x="759" y="969" type="line" smooth="yes"/>
      <point x="759" y="1215"/>
      <point x="631" y="1334"/>
      <point x="424" y="1334" type="curve" smooth="yes"/>
      <point x="210" y="1334"/>
      <point x="85" y="1215"/>
      <point x="85" y="976" type="curve" smooth="yes"/>
      <point x="85" y="461" type="line"/>
      <point x="371" y="461" type="line"/>
      <point x="371" y="989" type="line" smooth="yes"/>
      <point x="371" y="1049"/>
      <point x="386" y="1078"/>
      <point x="426" y="1078" type="curve" smooth="yes"/>
      <point x="467" y="1078"/>
      <point x="482" y="1049"/>
      <point x="482" y="989" type="curve" smooth="yes"/>
      <point x="482" y="846" type="line" smooth="yes"/>
      <point x="482" y="704"/>
      <point x="413" y="641"/>
    </contour>
    <contour>
      <point x="233" y="289" type="curve"/>
      <point x="233" y="582" type="line"/>
      <point x="160" y="544"/>
      <point x="80" y="510"/>
      <point x="4" y="475" type="curve"/>
      <point x="4" y="181" type="line"/>
      <point x="81" y="216"/>
      <point x="158" y="254"/>
    </contour>
    <contour>
      <point x="477" y="-15" type="curve" smooth="yes"/>
      <point x="576" y="-15"/>
      <point x="665" y="7"/>
      <point x="728" y="41" type="curve"/>
      <point x="742" y="307" type="line"/>
      <point x="684" y="280"/>
      <point x="620" y="258"/>
      <point x="543" y="258" type="curve" smooth="yes"/>
      <point x="434" y="258"/>
      <point x="389" y="297"/>
      <point x="389" y="381" type="curve" smooth="yes"/>
      <point x="389" y="521" type="line"/>
      <point x="93" y="521" type="line"/>
      <point x="93" y="373" type="line" smooth="yes"/>
      <point x="93" y="118"/>
      <point x="211" y="-15"/>
    </contour>
  </outline>
</glyph>
<glyph name="numero" format="2">
  <advance width="1509"/>
  <unicode hex="2116"/>
  <anchor x="506" y="0" name="bottom"/>
  <anchor x="506" y="1278" name="top"/>
  <outline>
    <contour>
      <point x="1012" y="374" type="line"/>
      <point x="1479" y="374" type="line"/>
      <point x="1479" y="554" type="line"/>
      <point x="1012" y="554" type="line"/>
    </contour>
    <contour>
      <point x="1245" y="621" type="curve" smooth="yes"/>
      <point x="1406" y="621"/>
      <point x="1489" y="713"/>
      <point x="1489" y="888" type="curve" smooth="yes"/>
      <point x="1489" y="1026" type="line" smooth="yes"/>
      <point x="1489" y="1200"/>
      <point x="1407" y="1293"/>
      <point x="1245" y="1293" type="curve" smooth="yes"/>
      <point x="1084" y="1293"/>
      <point x="1002" y="1201"/>
      <point x="1002" y="1026" type="curve" smooth="yes"/>
      <point x="1002" y="888" type="line" smooth="yes"/>
      <point x="1002" y="713"/>
      <point x="1085" y="621"/>
    </contour>
    <contour>
      <point x="1246" y="796" type="curve" smooth="yes"/>
      <point x="1220" y="796"/>
      <point x="1214" y="816"/>
      <point x="1214" y="853" type="curve" smooth="yes"/>
      <point x="1214" y="1063" type="line" smooth="yes"/>
      <point x="1214" y="1099"/>
      <point x="1220" y="1118"/>
      <point x="1246" y="1118" type="curve" smooth="yes"/>
      <point x="1271" y="1118"/>
      <point x="1277" y="1099"/>
      <point x="1277" y="1063" type="curve" smooth="yes"/>
      <point x="1277" y="853" type="line" smooth="yes"/>
      <point x="1277" y="816"/>
      <point x="1271" y="796"/>
    </contour>
    <component base="N"/>
  </outline>
</glyph>
<glyph name="Ohm" format="2">
  <advance width="882"/>
  <unicode hex="2126"/>
  <outline>
    <contour>
      <point x="441" y="1300" type="curve" smooth="yes"/>
      <point x="172" y="1300"/>
      <point x="40" y="1149"/>
      <point x="40" y="851" type="curve" smooth="yes"/>
      <point x="40" y="569" type="line" smooth="yes"/>
      <point x="40" y="393"/>
      <point x="101" y="304"/>
      <point x="242" y="281" type="curve"/>
      <point x="242" y="270" type="line"/>
      <point x="30" y="270" type="line"/>
      <point x="30" y="0" type="line"/>
      <point x="419" y="0" type="line"/>
      <point x="419" y="291" type="line"/>
      <point x="375" y="309"/>
      <point x="362" y="348"/>
      <point x="362" y="442" type="curve" smooth="yes"/>
      <point x="362" y="883" type="line" smooth="yes"/>
      <point x="362" y="989"/>
      <point x="380" y="1033"/>
      <point x="441" y="1033" type="curve" smooth="yes"/>
      <point x="502" y="1033"/>
      <point x="520" y="989"/>
      <point x="520" y="883" type="curve" smooth="yes"/>
      <point x="520" y="442" type="line" smooth="yes"/>
      <point x="520" y="348"/>
      <point x="507" y="309"/>
      <point x="463" y="291" type="curve"/>
      <point x="463" y="0" type="line"/>
      <point x="852" y="0" type="line"/>
      <point x="852" y="270" type="line"/>
      <point x="640" y="270" type="line"/>
      <point x="640" y="281" type="line"/>
      <point x="781" y="304"/>
      <point x="842" y="393"/>
      <point x="842" y="569" type="curve" smooth="yes"/>
      <point x="842" y="851" type="line" smooth="yes"/>
      <point x="842" y="1149"/>
      <point x="710" y="1300"/>
    </contour>
  </outline>
</glyph>
<glyph name="estimated" format="2">
  <advance width="1485"/>
  <unicode hex="212E"/>
  <outline>
    <contour>
      <point x="317" y="581" type="curve"/>
      <point x="1430" y="581" type="line"/>
      <point x="1430" y="606" type="line" smooth="yes"/>
      <point x="1430" y="979"/>
      <point x="1154" y="1227"/>
      <point x="741" y="1227" type="curve" smooth="yes"/>
      <point x="329" y="1227"/>
      <point x="55" y="979"/>
      <point x="55" y="606" type="curve" smooth="yes"/>
      <point x="55" y="226"/>
      <point x="329" y="-10"/>
      <point x="741" y="-10" type="curve" smooth="yes"/>
      <point x="955" y="-10"/>
      <point x="1164" y="86"/>
      <point x="1288" y="230" type="curve"/>
      <point x="1187" y="230" type="line"/>
      <point x="1078" y="116"/>
      <point x="924" y="46"/>
      <point x="744" y="46" type="curve" smooth="yes"/>
      <point x="566" y="46"/>
      <point x="428" y="97"/>
      <point x="325" y="204" type="curve" smooth="yes"/>
      <point x="312" y="218"/>
      <point x="306" y="231"/>
      <point x="306" y="244" type="curve" smooth="yes"/>
      <point x="306" y="574" type="line" smooth="yes"/>
      <point x="306" y="579"/>
      <point x="310" y="581"/>
    </contour>
    <contour>
      <point x="1180" y="983" type="curve"/>
      <point x="1180" y="647" type="line" smooth="yes"/>
      <point x="1180" y="640"/>
      <point x="1177" y="637"/>
      <point x="1170" y="637" type="curve" smooth="yes"/>
      <point x="317" y="637" type="line" smooth="yes"/>
      <point x="310" y="637"/>
      <point x="306" y="640"/>
      <point x="306" y="647" type="curve" smooth="yes"/>
      <point x="306" y="976" type="line" smooth="yes"/>
      <point x="306" y="990"/>
      <point x="313" y="1007"/>
      <point x="325" y="1020" type="curve" smooth="yes"/>
      <point x="407" y="1104"/>
      <point x="576" y="1178"/>
      <point x="744" y="1178" type="curve" smooth="yes"/>
      <point x="909" y="1178"/>
      <point x="1064" y="1129"/>
      <point x="1160" y="1025" type="curve" smooth="yes"/>
      <point x="1173" y="1011"/>
      <point x="1180" y="998"/>
    </contour>
  </outline>
</glyph>
<glyph name="partialdiff" format="2">
  <advance width="859"/>
  <unicode hex="2202"/>
  <outline>
    <contour>
      <point x="239" y="1273" type="curve"/>
      <point x="199" y="1001" type="line"/>
      <point x="232" y="1010"/>
      <point x="269" y="1017"/>
      <point x="312" y="1017" type="curve" smooth="yes"/>
      <point x="438" y="1017"/>
      <point x="495" y="965"/>
      <point x="496" y="829" type="curve" smooth="yes"/>
      <point x="496" y="791"/>
      <point x="487" y="725"/>
      <point x="467" y="390" type="curve" smooth="yes"/>
      <point x="461" y="289"/>
      <point x="446" y="247"/>
      <point x="400" y="247" type="curve" smooth="yes"/>
      <point x="358" y="247"/>
      <point x="343" y="277"/>
      <point x="343" y="347" type="curve" smooth="yes"/>
      <point x="343" y="370"/>
      <point x="344" y="393"/>
      <point x="349" y="458" type="curve" smooth="yes"/>
      <point x="355" y="550"/>
      <point x="370" y="591"/>
      <point x="413" y="591" type="curve" smooth="yes"/>
      <point x="456" y="591"/>
      <point x="476" y="561"/>
      <point x="480" y="511" type="curve"/>
      <point x="528" y="646" type="line"/>
      <point x="474" y="646" type="line"/>
      <point x="468" y="747"/>
      <point x="430" y="847"/>
      <point x="299" y="847" type="curve" smooth="yes"/>
      <point x="124" y="847"/>
      <point x="56" y="709"/>
      <point x="48" y="460" type="curve" smooth="yes"/>
      <point x="43" y="379"/>
      <point x="42" y="362"/>
      <point x="42" y="342" type="curve" smooth="yes"/>
      <point x="41" y="102"/>
      <point x="149" y="-20"/>
      <point x="388" y="-20" type="curve" smooth="yes"/>
      <point x="630" y="-20"/>
      <point x="759" y="121"/>
      <point x="778" y="407" type="curve" smooth="yes"/>
      <point x="805" y="787"/>
      <point x="809" y="839"/>
      <point x="809" y="864" type="curve" smooth="yes"/>
      <point x="809" y="1146"/>
      <point x="680" y="1297"/>
      <point x="412" y="1297" type="curve" smooth="yes"/>
      <point x="344" y="1297"/>
      <point x="285" y="1287"/>
    </contour>
  </outline>
</glyph>
<glyph name="emptyset" format="2">
  <advance width="1419"/>
  <unicode hex="2205"/>
  <outline>
    <contour>
      <point x="119" y="-90" type="line"/>
      <point x="442" y="-90" type="line"/>
      <point x="1300" y="1219" type="line"/>
      <point x="977" y="1219" type="line"/>
    </contour>
    <contour>
      <point x="708" y="-19" type="curve"/>
      <point x="1102" y="-19"/>
      <point x="1364" y="210"/>
      <point x="1364" y="553" type="curve" smooth="yes"/>
      <point x="1364" y="576" type="line" smooth="yes"/>
      <point x="1364" y="919"/>
      <point x="1102" y="1148"/>
      <point x="708" y="1148" type="curve"/>
      <point x="316" y="1148"/>
      <point x="55" y="919"/>
      <point x="55" y="576" type="curve" smooth="yes"/>
      <point x="55" y="553" type="line" smooth="yes"/>
      <point x="55" y="210"/>
      <point x="316" y="-19"/>
    </contour>
    <contour>
      <point x="708" y="266" type="curve"/>
      <point x="526" y="266"/>
      <point x="404" y="381"/>
      <point x="404" y="553" type="curve"/>
      <point x="404" y="576" type="line"/>
      <point x="404" y="749"/>
      <point x="526" y="864"/>
      <point x="708" y="864" type="curve"/>
      <point x="892" y="864"/>
      <point x="1015" y="749"/>
      <point x="1015" y="576" type="curve"/>
      <point x="1015" y="553" type="line"/>
      <point x="1015" y="381"/>
      <point x="892" y="266"/>
    </contour>
  </outline>
</glyph>
<glyph name="increment" format="2">
  <advance width="864"/>
  <unicode hex="2206"/>
  <outline>
    <contour>
      <point x="570" y="156" type="line"/>
      <point x="834" y="275" type="line"/>
      <point x="612" y="1278" type="line"/>
      <point x="372" y="1278" type="line"/>
    </contour>
    <contour>
      <point x="30" y="275" type="line"/>
      <point x="30" y="0" type="line"/>
      <point x="555" y="0" type="line"/>
      <point x="555" y="285" type="line"/>
      <point x="266" y="285" type="line"/>
    </contour>
    <contour>
      <point x="294" y="156" type="line"/>
      <point x="492" y="1278" type="line"/>
      <point x="252" y="1278" type="line"/>
      <point x="30" y="275" type="line"/>
    </contour>
    <contour>
      <point x="834" y="275" type="line"/>
      <point x="598" y="285" type="line"/>
      <point x="309" y="285" type="line"/>
      <point x="309" y="0" type="line"/>
      <point x="834" y="0" type="line"/>
    </contour>
  </outline>
</glyph>
<glyph name="product" format="2">
  <advance width="939"/>
  <unicode hex="220F"/>
  <outline>
    <contour>
      <point x="865" y="-185" type="line"/>
      <point x="865" y="1278" type="line"/>
      <point x="74" y="1278" type="line"/>
      <point x="74" y="-185" type="line"/>
      <point x="394" y="-185" type="line"/>
      <point x="394" y="1126" type="line"/>
      <point x="252" y="993" type="line"/>
      <point x="669" y="993" type="line"/>
      <point x="545" y="1126" type="line"/>
      <point x="545" y="-185" type="line"/>
    </contour>
  </outline>
</glyph>
<glyph name="summation" format="2">
  <advance width="713"/>
  <unicode hex="2211"/>
  <outline>
    <contour>
      <point x="30" y="1003" type="line"/>
      <point x="217" y="993" type="line"/>
      <point x="671" y="993" type="line"/>
      <point x="671" y="1278" type="line"/>
      <point x="30" y="1278" type="line"/>
    </contour>
    <contour>
      <point x="30" y="-185" type="line"/>
      <point x="671" y="-185" type="line"/>
      <point x="671" y="100" type="line"/>
      <point x="220" y="100" type="line"/>
      <point x="30" y="90" type="line"/>
    </contour>
    <contour>
      <point x="269" y="568" type="line"/>
      <point x="269" y="545" type="line"/>
      <point x="30" y="90" type="line"/>
      <point x="260" y="-84" type="line"/>
      <point x="579" y="464" type="line"/>
      <point x="579" y="646" type="line"/>
      <point x="260" y="1175" type="line"/>
      <point x="30" y="1003" type="line"/>
    </contour>
  </outline>
</glyph>
<glyph name="radical" format="2">
  <advance width="915"/>
  <unicode hex="221A"/>
  <outline>
    <contour>
      <point x="313" y="-239" type="line"/>
      <point x="584" y="-239" type="line"/>
      <point x="945" y="1352" type="line"/>
      <point x="674" y="1352" type="line"/>
    </contour>
    <contour>
      <point x="139" y="-239" type="line"/>
      <point x="569" y="-239" type="line"/>
      <point x="364" y="-63" type="line"/>
      <point x="347" y="-63" type="line"/>
      <point x="283" y="335" type="line"/>
      <point x="28" y="335" type="line"/>
    </contour>
  </outline>
</glyph>
<glyph name="infinity" format="2">
  <advance width="1240"/>
  <unicode hex="221E"/>
  <outline>
    <contour>
      <point x="48" y="431" type="line" smooth="yes"/>
      <point x="48" y="178"/>
      <point x="167" y="62"/>
      <point x="346" y="62" type="curve" smooth="yes"/>
      <point x="532" y="62"/>
      <point x="602" y="165"/>
      <point x="659" y="341" type="curve"/>
      <point x="669" y="390" type="line"/>
      <point x="669" y="592" type="line"/>
      <point x="659" y="641" type="line"/>
      <point x="602" y="817"/>
      <point x="532" y="920"/>
      <point x="346" y="920" type="curve" smooth="yes"/>
      <point x="167" y="920"/>
      <point x="48" y="804"/>
      <point x="48" y="554" type="curve" smooth="yes"/>
    </contour>
    <contour>
      <point x="355" y="441" type="curve" smooth="yes"/>
      <point x="355" y="543" type="line" smooth="yes"/>
      <point x="355" y="638"/>
      <point x="374" y="668"/>
      <point x="415" y="668" type="curve" smooth="yes"/>
      <point x="455" y="668"/>
      <point x="491" y="617"/>
      <point x="504" y="491" type="curve"/>
      <point x="491" y="365"/>
      <point x="455" y="314"/>
      <point x="415" y="314" type="curve" smooth="yes"/>
      <point x="374" y="314"/>
      <point x="355" y="344"/>
    </contour>
    <contour>
      <point x="1192" y="431" type="curve" smooth="yes"/>
      <point x="1192" y="554" type="line" smooth="yes"/>
      <point x="1192" y="804"/>
      <point x="1073" y="920"/>
      <point x="894" y="920" type="curve" smooth="yes"/>
      <point x="709" y="920"/>
      <point x="637" y="817"/>
      <point x="581" y="641" type="curve"/>
      <point x="571" y="592" type="line"/>
      <point x="571" y="390" type="line"/>
      <point x="581" y="341" type="line"/>
      <point x="637" y="165"/>
      <point x="709" y="62"/>
      <point x="894" y="62" type="curve" smooth="yes"/>
      <point x="1073" y="62"/>
      <point x="1192" y="179"/>
    </contour>
    <contour>
      <point x="885" y="441" type="line" smooth="yes"/>
      <point x="885" y="344"/>
      <point x="866" y="314"/>
      <point x="825" y="314" type="curve" smooth="yes"/>
      <point x="785" y="314"/>
      <point x="749" y="365"/>
      <point x="736" y="491" type="curve"/>
      <point x="749" y="617"/>
      <point x="785" y="668"/>
      <point x="825" y="668" type="curve" smooth="yes"/>
      <point x="866" y="668"/>
      <point x="885" y="638"/>
      <point x="885" y="543" type="curve" smooth="yes"/>
    </contour>
  </outline>
</glyph>
<glyph name="integral" format="2">
  <advance width="529"/>
  <unicode hex="222B"/>
  <outline>
    <contour>
      <point x="-129" y="-97" type="curve"/>
      <point x="-120" y="-331" type="line"/>
      <point x="-74" y="-345"/>
      <point x="-22" y="-355"/>
      <point x="34" y="-355" type="curve" smooth="yes"/>
      <point x="256" y="-355"/>
      <point x="360" y="-250"/>
      <point x="375" y="-23" type="curve"/>
      <point x="444" y="988" type="line"/>
      <point x="450" y="1078"/>
      <point x="487" y="1101"/>
      <point x="567" y="1101" type="curve" smooth="yes"/>
      <point x="595" y="1101"/>
      <point x="623" y="1098"/>
      <point x="651" y="1093" type="curve"/>
      <point x="642" y="1327" type="line"/>
      <point x="596" y="1341"/>
      <point x="544" y="1351"/>
      <point x="488" y="1351" type="curve" smooth="yes"/>
      <point x="266" y="1351"/>
      <point x="162" y="1246"/>
      <point x="147" y="1019" type="curve"/>
      <point x="78" y="8" type="line"/>
      <point x="72" y="-82"/>
      <point x="35" y="-105"/>
      <point x="-45" y="-105" type="curve" smooth="yes"/>
      <point x="-73" y="-105"/>
      <point x="-101" y="-102"/>
    </contour>
  </outline>
</glyph>
<glyph name="notequal" format="2">
  <advance width="735"/>
  <unicode hex="2260"/>
  <outline>
    <contour>
      <point x="135" y="111" type="line"/>
      <point x="366" y="111" type="line"/>
      <point x="579" y="1161" type="line"/>
      <point x="348" y="1161" type="line"/>
    </contour>
    <component base="equal"/>
  </outline>
</glyph>
<glyph name="lessequal" format="2">
  <advance width="735"/>
  <unicode hex="2264"/>
  <outline>
    <contour>
      <point x="681" y="406" type="line"/>
      <point x="681" y="661" type="line"/>
      <point x="251" y="726" type="line"/>
      <point x="251" y="742" type="line"/>
      <point x="681" y="808" type="line"/>
      <point x="681" y="1063" type="line"/>
      <point x="56" y="934" type="line"/>
      <point x="56" y="535" type="line"/>
    </contour>
    <contour>
      <point x="54" y="111" type="line"/>
      <point x="681" y="111" type="line"/>
      <point x="681" y="358" type="line"/>
      <point x="54" y="358" type="line"/>
    </contour>
  </outline>
</glyph>
<glyph name="greaterequal" format="2">
  <advance width="735"/>
  <unicode hex="2265"/>
  <outline>
    <contour>
      <point x="54" y="406" type="line"/>
      <point x="679" y="535" type="line"/>
      <point x="679" y="934" type="line"/>
      <point x="54" y="1063" type="line"/>
      <point x="54" y="808" type="line"/>
      <point x="484" y="742" type="line"/>
      <point x="484" y="726" type="line"/>
      <point x="54" y="661" type="line"/>
    </contour>
    <contour>
      <point x="681" y="111" type="line"/>
      <point x="681" y="358" type="line"/>
      <point x="54" y="358" type="line"/>
      <point x="54" y="111" type="line"/>
    </contour>
  </outline>
</glyph>
<glyph name="lozenge" format="2">
  <advance width="885"/>
  <unicode hex="25CA"/>
  <outline>
    <contour>
      <point x="251" y="516" type="line"/>
      <point x="556" y="1278" type="line"/>
      <point x="270" y="1278" type="line"/>
      <point x="39" y="761" type="line"/>
      <point x="39" y="516" type="line"/>
    </contour>
    <contour>
      <point x="236" y="814" type="line"/>
      <point x="39" y="516" type="line"/>
      <point x="270" y="0" type="line"/>
      <point x="556" y="0" type="line"/>
    </contour>
    <contour>
      <point x="634" y="516" type="line"/>
      <point x="846" y="516" type="line"/>
      <point x="846" y="761" type="line"/>
      <point x="615" y="1278" type="line"/>
      <point x="329" y="1278" type="line"/>
    </contour>
    <contour>
      <point x="649" y="814" type="line"/>
      <point x="329" y="0" type="line"/>
      <point x="615" y="0" type="line"/>
      <point x="846" y="516" type="line"/>
    </contour>
  </outline>
</glyph>
<glyph name="leftanglebracketmath" format="2">
  <advance width="529"/>
  <unicode hex="27E8"/>
  <outline>
    <contour>
      <point x="352" y="556" type="line"/>
      <point x="532" y="1351" type="line"/>
      <point x="246" y="1351" type="line"/>
      <point x="62" y="586" type="line"/>
      <point x="62" y="527" type="line"/>
      <point x="246" y="-238" type="line"/>
      <point x="532" y="-238" type="line"/>
    </contour>
  </outline>
</glyph>
<glyph name="rightanglebracketmath" format="2">
  <advance width="529"/>
  <unicode hex="27E9"/>
  <outline>
    <contour>
      <point x="177" y="556" type="line"/>
      <point x="-3" y="-238" type="line"/>
      <point x="283" y="-238" type="line"/>
      <point x="467" y="527" type="line"/>
      <point x="467" y="586" type="line"/>
      <point x="283" y="1351" type="line"/>
      <point x="-3" y="1351" type="line"/>
    </contour>
  </outline>
</glyph>
<glyph name="__hookabovecombsmall.case" format="2">
  <advance width="520"/>
  <anchor x="177" y="1006" name="_top"/>
  <outline>
    <contour>
      <point x="160" y="1030" type="curve"/>
      <point x="140" y="1147" type="line"/>
      <point x="188" y="1154"/>
      <point x="225" y="1169"/>
      <point x="225" y="1199" type="curve" smooth="yes"/>
      <point x="225" y="1220"/>
      <point x="208" y="1230"/>
      <point x="178" y="1230" type="curve" smooth="yes"/>
      <point x="152" y="1230"/>
      <point x="131" y="1225"/>
      <point x="110" y="1219" type="curve"/>
      <point x="119" y="1336" type="line"/>
      <point x="145" y="1347"/>
      <point x="187" y="1355"/>
      <point x="232" y="1355" type="curve" smooth="yes"/>
      <point x="340" y="1355"/>
      <point x="402" y="1307"/>
      <point x="402" y="1209" type="curve" smooth="yes"/>
      <point x="402" y="1103"/>
      <point x="305" y="1047"/>
    </contour>
  </outline>
</glyph>
<glyph name="__hookabovecombsmall" format="2">
  <advance width="520"/>
  <anchor x="177" y="1006" name="_top"/>
  <outline>
    <contour>
      <point x="162" y="1016" type="curve"/>
      <point x="142" y="1147" type="line"/>
      <point x="191" y="1153"/>
      <point x="229" y="1171"/>
      <point x="229" y="1204" type="curve" smooth="yes"/>
      <point x="229" y="1228"/>
      <point x="212" y="1239"/>
      <point x="181" y="1239" type="curve" smooth="yes"/>
      <point x="154" y="1239"/>
      <point x="133" y="1234"/>
      <point x="111" y="1227" type="curve"/>
      <point x="120" y="1359" type="line"/>
      <point x="147" y="1370"/>
      <point x="190" y="1379"/>
      <point x="236" y="1379" type="curve" smooth="yes"/>
      <point x="348" y="1379"/>
      <point x="411" y="1325"/>
      <point x="411" y="1216" type="curve" smooth="yes"/>
      <point x="411" y="1096"/>
      <point x="312" y="1032"/>
    </contour>
  </outline>
</glyph>
<glyph name="_acutecombsmall.case" format="2">
  <advance width="612"/>
  <anchor x="225" y="1006" name="_top"/>
  <outline>
    <contour>
      <point x="217" y="1286" type="line"/>
      <point x="123" y="1058" type="line"/>
      <point x="123" y="1058" type="line"/>
      <point x="324" y="1058" type="line"/>
      <point x="475" y="1286" type="line"/>
      <point x="475" y="1286" type="line"/>
    </contour>
  </outline>
</glyph>
<glyph name="_acutecombsmall" format="2">
  <advance width="612"/>
  <anchor x="225" y="1006" name="_top"/>
  <outline>
    <contour>
      <point x="221" y="1300" type="line"/>
      <point x="125" y="1052" type="line"/>
      <point x="125" y="1052" type="line"/>
      <point x="322" y="1052" type="line"/>
      <point x="471" y="1300" type="line"/>
      <point x="471" y="1300" type="line"/>
    </contour>
  </outline>
</glyph>
<glyph name="_gravecombsmall.case" format="2">
  <advance width="612"/>
  <anchor x="387" y="1006" name="_top"/>
  <outline>
    <contour>
      <point x="395" y="1286" type="line"/>
      <point x="137" y="1286" type="line"/>
      <point x="137" y="1286" type="line"/>
      <point x="288" y="1058" type="line"/>
      <point x="489" y="1058" type="line"/>
      <point x="489" y="1058" type="line"/>
    </contour>
  </outline>
</glyph>
<glyph name="_gravecombsmall" format="2">
  <advance width="612"/>
  <anchor x="387" y="1006" name="_top"/>
  <outline>
    <contour>
      <point x="391" y="1300" type="line"/>
      <point x="141" y="1300" type="line"/>
      <point x="141" y="1300" type="line"/>
      <point x="290" y="1052" type="line"/>
      <point x="487" y="1052" type="line"/>
      <point x="487" y="1052" type="line"/>
    </contour>
  </outline>
</glyph>
<glyph name="_tildecombsmall.case" format="2">
  <advance width="759"/>
  <anchor x="380" y="1006" name="_top"/>
  <outline>
    <contour>
      <point x="495" y="1080" type="curve" smooth="yes"/>
      <point x="605" y="1080"/>
      <point x="648" y="1159"/>
      <point x="648" y="1277" type="curve" smooth="yes"/>
      <point x="648" y="1303" type="line"/>
      <point x="493" y="1303" type="line"/>
      <point x="493" y="1301" type="line"/>
      <point x="493" y="1267"/>
      <point x="485" y="1251"/>
      <point x="456" y="1251" type="curve" smooth="yes"/>
      <point x="405" y="1251"/>
      <point x="351" y="1295"/>
      <point x="271" y="1295" type="curve" smooth="yes"/>
      <point x="156" y="1295"/>
      <point x="113" y="1215"/>
      <point x="113" y="1104" type="curve" smooth="yes"/>
      <point x="113" y="1075" type="line"/>
      <point x="268" y="1075" type="line"/>
      <point x="268" y="1076" type="line"/>
      <point x="268" y="1107"/>
      <point x="276" y="1123"/>
      <point x="309" y="1123" type="curve" smooth="yes"/>
      <point x="358" y="1123"/>
      <point x="415" y="1080"/>
    </contour>
  </outline>
</glyph>
<glyph name="_tildecombsmall" format="2">
  <advance width="759"/>
  <anchor x="380" y="1006" name="_top"/>
  <outline>
    <contour>
      <point x="495" y="1092" type="curve" smooth="yes"/>
      <point x="605" y="1092"/>
      <point x="648" y="1171"/>
      <point x="648" y="1289" type="curve" smooth="yes"/>
      <point x="648" y="1330" type="line"/>
      <point x="493" y="1330" type="line"/>
      <point x="493" y="1328" type="line"/>
      <point x="493" y="1292"/>
      <point x="485" y="1275"/>
      <point x="456" y="1275" type="curve" smooth="yes"/>
      <point x="405" y="1275"/>
      <point x="351" y="1319"/>
      <point x="271" y="1319" type="curve" smooth="yes"/>
      <point x="156" y="1319"/>
      <point x="113" y="1239"/>
      <point x="113" y="1128" type="curve" smooth="yes"/>
      <point x="113" y="1087" type="line"/>
      <point x="268" y="1087" type="line"/>
      <point x="268" y="1088" type="line"/>
      <point x="268" y="1119"/>
      <point x="276" y="1135"/>
      <point x="309" y="1135" type="curve" smooth="yes"/>
      <point x="358" y="1135"/>
      <point x="415" y="1092"/>
    </contour>
  </outline>
</glyph>
<glyph name="brevecomb.case" format="2">
  <anchor x="367" y="1278" name="_top"/>
  <anchor x="367" y="1598" name="top"/>
  <outline>
    <contour>
      <point x="367" y="1339" type="curve"/>
      <point x="550" y="1339"/>
      <point x="630" y="1433"/>
      <point x="630" y="1612" type="curve"/>
      <point x="444" y="1612" type="line"/>
      <point x="444" y="1549"/>
      <point x="424" y="1513"/>
      <point x="367" y="1513" type="curve" smooth="yes"/>
      <point x="310" y="1513"/>
      <point x="290" y="1549"/>
      <point x="290" y="1612" type="curve"/>
      <point x="104" y="1612" type="line"/>
      <point x="104" y="1433"/>
      <point x="184" y="1339"/>
    </contour>
  </outline>
</glyph>
<glyph name="brevecomb.narrow" format="2">
  <anchor x="367" y="1006" name="_top"/>
  <anchor x="367" y="1366" name="top"/>
  <outline>
    <contour>
      <point x="367" y="1067" type="curve"/>
      <point x="542" y="1067"/>
      <point x="614" y="1165"/>
      <point x="614" y="1348" type="curve"/>
      <point x="434" y="1348" type="line"/>
      <point x="434" y="1286"/>
      <point x="419" y="1253"/>
      <point x="367" y="1253" type="curve" smooth="yes"/>
      <point x="315" y="1253"/>
      <point x="300" y="1286"/>
      <point x="300" y="1348" type="curve"/>
      <point x="120" y="1348" type="line"/>
      <point x="120" y="1165"/>
      <point x="192" y="1067"/>
    </contour>
  </outline>
</glyph>
<glyph name="brevecomb_tildecomb.case" format="2">
  <anchor x="367" y="1278" name="_top"/>
  <anchor x="366" y="1598" name="top"/>
  <outline>
    <contour>
      <point x="479" y="1670" type="curve" smooth="yes"/>
      <point x="587" y="1670"/>
      <point x="629" y="1748"/>
      <point x="629" y="1863" type="curve" smooth="yes"/>
      <point x="629" y="1889" type="line"/>
      <point x="477" y="1889" type="line"/>
      <point x="477" y="1887" type="line"/>
      <point x="477" y="1854"/>
      <point x="469" y="1838"/>
      <point x="441" y="1838" type="curve" smooth="yes"/>
      <point x="391" y="1838"/>
      <point x="338" y="1881"/>
      <point x="260" y="1881" type="curve" smooth="yes"/>
      <point x="147" y="1881"/>
      <point x="105" y="1803"/>
      <point x="105" y="1694" type="curve" smooth="yes"/>
      <point x="105" y="1666" type="line"/>
      <point x="257" y="1666" type="line"/>
      <point x="257" y="1666" type="line"/>
      <point x="257" y="1697"/>
      <point x="264" y="1713"/>
      <point x="297" y="1713" type="curve" smooth="yes"/>
      <point x="345" y="1713"/>
      <point x="401" y="1670"/>
    </contour>
    <component base="brevecomb.case" xOffset="-1"/>
  </outline>
</glyph>
<glyph name="brevecomb_tildecomb" format="2">
  <anchor x="367" y="1006" name="_top"/>
  <anchor x="366" y="1366" name="top"/>
  <outline>
    <contour>
      <point x="479" y="1450" type="curve" smooth="yes"/>
      <point x="587" y="1450"/>
      <point x="629" y="1528"/>
      <point x="629" y="1643" type="curve" smooth="yes"/>
      <point x="629" y="1683" type="line"/>
      <point x="477" y="1683" type="line"/>
      <point x="477" y="1681" type="line"/>
      <point x="477" y="1646"/>
      <point x="469" y="1630"/>
      <point x="441" y="1630" type="curve" smooth="yes"/>
      <point x="391" y="1630"/>
      <point x="338" y="1673"/>
      <point x="260" y="1673" type="curve" smooth="yes"/>
      <point x="147" y="1673"/>
      <point x="105" y="1594"/>
      <point x="105" y="1485" type="curve" smooth="yes"/>
      <point x="105" y="1445" type="line"/>
      <point x="257" y="1445" type="line"/>
      <point x="257" y="1446" type="line"/>
      <point x="257" y="1477"/>
      <point x="264" y="1492"/>
      <point x="297" y="1492" type="curve" smooth="yes"/>
      <point x="345" y="1492"/>
      <point x="401" y="1450"/>
    </contour>
    <component base="brevecomb" xOffset="-1"/>
  </outline>
</glyph>
<glyph name="breveinvertedcomb.case" format="2">
  <anchor x="367" y="1278" name="_top"/>
  <anchor x="367" y="1618" name="top"/>
  <outline>
    <contour>
      <point x="367" y="1621" type="curve"/>
      <point x="184" y="1621"/>
      <point x="104" y="1527"/>
      <point x="104" y="1348" type="curve"/>
      <point x="290" y="1348" type="line"/>
      <point x="290" y="1411"/>
      <point x="310" y="1447"/>
      <point x="367" y="1447" type="curve" smooth="yes"/>
      <point x="424" y="1447"/>
      <point x="444" y="1411"/>
      <point x="444" y="1348" type="curve"/>
      <point x="630" y="1348" type="line"/>
      <point x="630" y="1527"/>
      <point x="550" y="1621"/>
    </contour>
  </outline>
</glyph>
<glyph name="breveinvertedcomb.narrow" format="2">
  <anchor x="367" y="1006" name="_top"/>
  <anchor x="367" y="1376" name="top"/>
  <outline>
    <contour>
      <point x="367" y="1357" type="curve"/>
      <point x="192" y="1357"/>
      <point x="120" y="1259"/>
      <point x="120" y="1076" type="curve"/>
      <point x="300" y="1076" type="line"/>
      <point x="300" y="1138"/>
      <point x="315" y="1171"/>
      <point x="367" y="1171" type="curve" smooth="yes"/>
      <point x="419" y="1171"/>
      <point x="434" y="1138"/>
      <point x="434" y="1076" type="curve"/>
      <point x="614" y="1076" type="line"/>
      <point x="614" y="1259"/>
      <point x="542" y="1357"/>
    </contour>
  </outline>
</glyph>
<glyph name="caroncomb.alt" format="2">
  <anchor x="47" y="1278" name="_topright"/>
  <outline>
    <contour>
      <point x="291" y="1278" type="curve"/>
      <point x="47" y="1278" type="line"/>
      <point x="50" y="1234"/>
      <point x="52" y="1208"/>
      <point x="52" y="1170" type="curve" smooth="yes"/>
      <point x="52" y="1060"/>
      <point x="40" y="967"/>
      <point x="22" y="887" type="curve"/>
      <point x="196" y="842" type="line"/>
      <point x="266" y="943"/>
      <point x="299" y="1059"/>
      <point x="299" y="1191" type="curve" smooth="yes"/>
      <point x="299" y="1228"/>
      <point x="295" y="1255"/>
    </contour>
  </outline>
</glyph>
<glyph name="circumflexcomb_tildecomb.case" format="2">
  <anchor x="410" y="1278" name="_top"/>
  <anchor x="410" y="1598" name="top"/>
  <outline>
    <contour>
      <point x="523" y="1670" type="curve" smooth="yes"/>
      <point x="631" y="1670"/>
      <point x="673" y="1748"/>
      <point x="673" y="1863" type="curve" smooth="yes"/>
      <point x="673" y="1889" type="line"/>
      <point x="521" y="1889" type="line"/>
      <point x="521" y="1887" type="line"/>
      <point x="521" y="1854"/>
      <point x="513" y="1838"/>
      <point x="485" y="1838" type="curve" smooth="yes"/>
      <point x="435" y="1838"/>
      <point x="382" y="1881"/>
      <point x="304" y="1881" type="curve" smooth="yes"/>
      <point x="191" y="1881"/>
      <point x="149" y="1803"/>
      <point x="149" y="1694" type="curve" smooth="yes"/>
      <point x="149" y="1666" type="line"/>
      <point x="301" y="1666" type="line"/>
      <point x="301" y="1666" type="line"/>
      <point x="301" y="1697"/>
      <point x="308" y="1713"/>
      <point x="341" y="1713" type="curve" smooth="yes"/>
      <point x="389" y="1713"/>
      <point x="445" y="1670"/>
    </contour>
    <component base="circumflexcomb.case"/>
  </outline>
</glyph>
<glyph name="circumflexcomb_tildecomb" format="2">
  <anchor x="380" y="1006" name="_top"/>
  <anchor x="380" y="1345" name="top"/>
  <outline>
    <contour>
      <point x="493" y="1429" type="curve" smooth="yes"/>
      <point x="601" y="1429"/>
      <point x="643" y="1507"/>
      <point x="643" y="1622" type="curve" smooth="yes"/>
      <point x="643" y="1662" type="line"/>
      <point x="491" y="1662" type="line"/>
      <point x="491" y="1660" type="line"/>
      <point x="491" y="1625"/>
      <point x="483" y="1609"/>
      <point x="455" y="1609" type="curve" smooth="yes"/>
      <point x="405" y="1609"/>
      <point x="352" y="1652"/>
      <point x="274" y="1652" type="curve" smooth="yes"/>
      <point x="161" y="1652"/>
      <point x="119" y="1573"/>
      <point x="119" y="1464" type="curve" smooth="yes"/>
      <point x="119" y="1424" type="line"/>
      <point x="271" y="1424" type="line"/>
      <point x="271" y="1425" type="line"/>
      <point x="271" y="1456"/>
      <point x="278" y="1471"/>
      <point x="311" y="1471" type="curve" smooth="yes"/>
      <point x="359" y="1471"/>
      <point x="415" y="1429"/>
    </contour>
    <component base="circumflexcomb"/>
  </outline>
</glyph>
<glyph name="commaturnedabovecomb.case" format="2">
  <anchor x="209" y="1278" name="_top"/>
  <anchor x="253" y="1687" name="top"/>
  <outline>
    <contour>
      <point x="124" y="1348" type="curve"/>
      <point x="375" y="1348" type="line"/>
      <point x="373" y="1379"/>
      <point x="371" y="1406"/>
      <point x="371" y="1434" type="curve" smooth="yes"/>
      <point x="371" y="1533"/>
      <point x="392" y="1604"/>
      <point x="425" y="1668" type="curve"/>
      <point x="229" y="1718" type="line"/>
      <point x="151" y="1634"/>
      <point x="119" y="1542"/>
      <point x="119" y="1431" type="curve" smooth="yes"/>
      <point x="119" y="1399"/>
      <point x="121" y="1374"/>
    </contour>
  </outline>
</glyph>
<glyph name="dblgravecomb.case" format="2">
  <anchor x="501" y="1278" name="_top"/>
  <anchor x="388" y="1618" name="top"/>
  <outline>
    <contour>
      <point x="370" y="1618" type="line"/>
      <point x="126" y="1618" type="line"/>
      <point x="126" y="1618" type="line"/>
      <point x="265" y="1348" type="line"/>
      <point x="454" y="1348" type="line"/>
      <point x="454" y="1348" type="line"/>
    </contour>
    <contour>
      <point x="653" y="1618" type="line"/>
      <point x="411" y="1618" type="line"/>
      <point x="411" y="1618" type="line"/>
      <point x="550" y="1348" type="line"/>
      <point x="739" y="1348" type="line"/>
      <point x="739" y="1348" type="line"/>
    </contour>
  </outline>
</glyph>
<glyph name="dblgravecomb.narrow" format="2">
  <anchor x="469" y="1006" name="_top"/>
  <anchor x="393" y="1376" name="top"/>
  <outline>
    <contour>
      <point x="377" y="1366" type="line"/>
      <point x="141" y="1366" type="line"/>
      <point x="141" y="1366" type="line"/>
      <point x="254" y="1076" type="line"/>
      <point x="439" y="1076" type="line"/>
      <point x="439" y="1076" type="line"/>
    </contour>
    <contour>
      <point x="648" y="1366" type="line"/>
      <point x="415" y="1366" type="line"/>
      <point x="415" y="1356" type="line"/>
      <point x="501" y="1076" type="line"/>
      <point x="686" y="1076" type="line"/>
      <point x="686" y="1076" type="line"/>
    </contour>
  </outline>
</glyph>
<glyph name="dotaccentcomb.case" format="2">
  <anchor x="248" y="1278" name="_top"/>
  <anchor x="248" y="1606" name="top"/>
  <outline>
    <contour>
      <point x="247.12" y="1341.22" type="curve" smooth="yes"/>
      <point x="341.2" y="1341.22"/>
      <point x="390.16" y="1394.8"/>
      <point x="390.16" y="1484.1" type="curve" smooth="yes"/>
      <point x="390.16" y="1490.68" type="line" smooth="yes"/>
      <point x="390.16" y="1579.98"/>
      <point x="341.2" y="1633.56"/>
      <point x="247.12" y="1633.56" type="curve" smooth="yes"/>
      <point x="154" y="1633.56"/>
      <point x="106" y="1579.98"/>
      <point x="106" y="1490.68" type="curve" smooth="yes"/>
      <point x="106" y="1484.1" type="line" smooth="yes"/>
      <point x="106" y="1394.8"/>
      <point x="154" y="1341.22"/>
    </contour>
  </outline>
</glyph>
<glyph name="dotbelowcomb.case" format="2">
  <anchor x="248" y="0" name="_bottom"/>
  <anchor x="248" y="-386" name="bottom"/>
  <outline>
    <contour>
      <point x="247" y="-350" type="curve" smooth="yes"/>
      <point x="341" y="-350"/>
      <point x="390" y="-296"/>
      <point x="390" y="-207" type="curve" smooth="yes"/>
      <point x="390" y="-200" type="line" smooth="yes"/>
      <point x="390" y="-111"/>
      <point x="341" y="-57"/>
      <point x="247" y="-57" type="curve" smooth="yes"/>
      <point x="154" y="-57"/>
      <point x="106" y="-111"/>
      <point x="106" y="-200" type="curve" smooth="yes"/>
      <point x="106" y="-207" type="line" smooth="yes"/>
      <point x="106" y="-296"/>
      <point x="154" y="-350"/>
    </contour>
  </outline>
</glyph>
<glyph name="horncomb.case_O" format="2">
  <anchor x="346" y="1278" name="_topright"/>
  <anchor x="431" y="1468" name="topright"/>
  <outline>
    <contour>
      <point x="209" y="1116" type="line"/>
      <point x="357" y="1172"/>
      <point x="407" y="1267"/>
      <point x="407" y="1378" type="curve" smooth="yes"/>
      <point x="407" y="1403"/>
      <point x="404" y="1432"/>
      <point x="400" y="1453" type="curve"/>
      <point x="141" y="1453" type="line"/>
      <point x="143" y="1436"/>
      <point x="145" y="1413"/>
      <point x="145" y="1394" type="curve" smooth="yes"/>
      <point x="145" y="1343"/>
      <point x="133" y="1287"/>
      <point x="81" y="1249" type="curve"/>
    </contour>
  </outline>
</glyph>
<glyph name="horncomb_o" format="2">
  <anchor x="346" y="1006" name="_topright"/>
  <anchor x="427" y="1192" name="topright"/>
  <outline>
    <contour>
      <point x="218" y="856" type="line"/>
      <point x="359" y="912"/>
      <point x="407" y="1006"/>
      <point x="407" y="1117" type="curve" smooth="yes"/>
      <point x="407" y="1142"/>
      <point x="404" y="1171"/>
      <point x="400" y="1192" type="curve"/>
      <point x="141" y="1192" type="line"/>
      <point x="143" y="1175"/>
      <point x="145" y="1152"/>
      <point x="145" y="1133" type="curve" smooth="yes"/>
      <point x="145" y="1082"/>
      <point x="133" y="1026"/>
      <point x="81" y="988" type="curve"/>
    </contour>
  </outline>
</glyph>
<glyph name="hungarumlautcomb.case" format="2">
  <anchor x="338" y="1278" name="_top"/>
  <anchor x="451" y="1618" name="top"/>
  <outline>
    <contour>
      <point x="469" y="1618" type="line"/>
      <point x="385" y="1348" type="line"/>
      <point x="385" y="1348" type="line"/>
      <point x="574" y="1348" type="line"/>
      <point x="713" y="1618" type="line"/>
      <point x="713" y="1618" type="line"/>
    </contour>
    <contour>
      <point x="186" y="1618" type="line"/>
      <point x="100" y="1348" type="line"/>
      <point x="100" y="1348" type="line"/>
      <point x="289" y="1348" type="line"/>
      <point x="428" y="1618" type="line"/>
      <point x="428" y="1618" type="line"/>
    </contour>
  </outline>
</glyph>
<glyph name="hungarumlautcomb.narrow" format="2">
  <anchor x="338" y="1006" name="_top"/>
  <anchor x="408" y="1376" name="top"/>
  <outline>
    <contour>
      <point x="430" y="1366" type="line"/>
      <point x="368" y="1076" type="line"/>
      <point x="368" y="1076" type="line"/>
      <point x="553" y="1076" type="line"/>
      <point x="666" y="1366" type="line"/>
      <point x="666" y="1366" type="line"/>
    </contour>
    <contour>
      <point x="159" y="1366" type="line"/>
      <point x="121" y="1076" type="line"/>
      <point x="121" y="1076" type="line"/>
      <point x="306" y="1076" type="line"/>
      <point x="392" y="1356" type="line"/>
      <point x="392" y="1366" type="line"/>
    </contour>
  </outline>
</glyph>
<glyph name="periodcentered.loclCAT.case" format="2">
  <outline>
    <contour>
      <point x="-104" y="542" type="curve" smooth="yes"/>
      <point x="-17" y="542"/>
      <point x="29" y="598"/>
      <point x="29" y="692" type="curve" smooth="yes"/>
      <point x="29" y="705" type="line" smooth="yes"/>
      <point x="29" y="799"/>
      <point x="-17" y="855"/>
      <point x="-104" y="855" type="curve" smooth="yes"/>
      <point x="-190" y="855"/>
      <point x="-235" y="799"/>
      <point x="-235" y="705" type="curve" smooth="yes"/>
      <point x="-235" y="692" type="line" smooth="yes"/>
      <point x="-235" y="598"/>
      <point x="-190" y="542"/>
    </contour>
  </outline>
</glyph>
<glyph name="periodcentered.loclCAT" format="2">
  <advance width="206"/>
  <outline>
    <contour>
      <point x="102" y="560" type="curve" smooth="yes"/>
      <point x="189" y="560"/>
      <point x="235" y="616"/>
      <point x="235" y="710" type="curve" smooth="yes"/>
      <point x="235" y="723" type="line" smooth="yes"/>
      <point x="235" y="817"/>
      <point x="189" y="873"/>
      <point x="102" y="873" type="curve" smooth="yes"/>
      <point x="16" y="873"/>
      <point x="-29" y="817"/>
      <point x="-29" y="723" type="curve" smooth="yes"/>
      <point x="-29" y="710" type="line" smooth="yes"/>
      <point x="-29" y="616"/>
      <point x="16" y="560"/>
    </contour>
  </outline>
</glyph>
